<?xml version="1.0" encoding="utf-8"?>
<!-- Generator: Adobe Illustrator 18.1.1, SVG Export Plug-In . SVG Version: 6.00 Build 0)  -->
<svg version="1.1" id="Layer_1" xmlns="http://www.w3.org/2000/svg" xmlns:xlink="http://www.w3.org/1999/xlink" x="0px" y="0px"
	 viewBox="0 0 110 82" enable-background="new 0 0 110 82" xml:space="preserve">
<g>
	<path fill="#ffffff" d="M53.7,2.9c0,0,0.2,0,0.4,0.1c0.2,0,0.4,0.1,0.4,0.1C54.4,3,54.2,2.9,53.7,2.9z"/>
	<path fill="#ffffff" d="M92.9,65.1c0,0.1-0.1,0.1-0.1,0.2C92.9,65.2,92.9,65.2,92.9,65.1z"/>
	<path fill="#ffffff" d="M71.9,16.5C71.9,16.4,71.9,16.4,71.9,16.5c0-0.1,0-0.1,0-0.2L71.9,16.5z"/>
	<path fill="#ffffff" d="M96.4,53.8c0-0.4-0.1-0.7-0.1-0.7s0,0.1,0,0.3c0,0.2,0,0.4,0,0.6c0,0.4,0,0.8,0,0.8
		c-0.5-0.3-0.3-1.1-0.3-2.2c0-1.1-0.1-2.6-0.9-4c-0.2-0.7-0.6-1.3-1-1.9c-0.5-0.6-1-1.1-1.5-1.6c-1.1-1-2.1-1.9-2.8-3.2
		c-1.2-0.8,1.3,0.5-0.2-0.9c0.3-0.4,0.8,0.6,0.8-0.1c-0.7-0.7-1.2-1.4-1.8-2.2c-0.3-0.4-0.6-0.7-1-1.1c-0.4-0.4-1.1-0.8-1.7-1
		l0.1-0.4c-1.8-0.5-3.1-1-4.4-1.5c-1.3-0.5-2.5-0.9-3.5-0.8c-3.2-0.4-1.9-1.6-5.4-1.4l-0.8-0.5c0.1-0.3,0.1-0.7,0-1
		c1-1.7,1.6-1.8,2.3-2.6l-0.2,0.5c0.9-1.7,1.5-2.8,1.9-3.8c0.4-1,0.8-2,1.3-3.3c0.2-1.5-0.4-1.8,0.2-4.4c0.2,0.9,0.3-0.2,0.3-1.2
		c0,0.6,0.1,0.9,0.4-0.5c-0.1-0.2-0.2-0.5-0.2-0.8c0,0,0-0.1,0.1,0c-0.3-1.8-0.4-1.4-0.3-0.6c-0.1,0-0.1,0-0.2,0.3
		c0.1-0.9-0.1-2.2-0.4-3.2c-0.4-1-0.8-1.8-0.6-2.1c-0.2-0.3-0.3-0.6-0.6-0.9c-0.3-0.3-0.6-0.6-0.9-0.9c-0.6-0.4-1.2-0.9-1.7-1.1
		c-0.3-0.1-0.6-0.3-0.8-0.4c-0.3-0.1-0.5-0.2-0.8-0.2c-0.5-0.2-1-0.3-1.5-0.4c-1.9-0.4-3.7-0.6-5.6-0.7C64.1,4.1,65,4,66.1,4.1
		c0,0-0.7-0.1-1.4-0.2c-0.7-0.1-1.4-0.1-1.4-0.1c0.1-0.4,1.6,0,2.4,0.1c-3.2-1.2-6.7-0.3-10.4-1l-0.8,0.3l-0.2-0.1
		c0,0.2-0.8,0.4-1.4,0.5c-0.5-0.3,0-0.8-1.9-0.7c-1.5-0.3-4.2,0.5-6.1,1c1-0.1,0.7,0.1,0.3,0.3c-0.9,0.2-1.5-0.1-2.2,0.2L43,4
		c-0.1,0.4-2.4,0.9-2.6,1.1c-0.6-0.2,1.3-0.6,1.5-0.9c-1.8,0.4-2.3,0.6-2.7,0.7c-0.5,0.1-0.9,0.2-2.7,0.8c-1.8,0.9,0.5,0.3-0.3,1
		c-0.8,0.3-1.6,0.7-2.4,1C32.9,8,32,8.3,31,8.5l0.7,0.2c-2.9,1.5-4.7,2.3-6.8,2.9c-2.5,1.8-4.3,3.4-5.5,4.7c-1.2,1.3-2,2.3-2.4,3
		c-0.8,1.4-0.4,1.8,0.5,1.5c0.9-0.2,2.2-1,3.4-1.6c0.6-0.3,1.1-0.6,1.5-0.8c0.4-0.2,0.6-0.3,0.6-0.3c4-2,6.9-3.4,10.2-5
		c3.2-1.5,6.8-3.1,12-4.1c4.7-0.6,7.6-0.4,10.5-0.1c1.5,0.2,3,0.4,4.8,0.6c1.7,0.2,3.7,0.5,6,0.9c1,0.3,2.1,0.5,3,0.9
		c0.5,0.2,0.8,0.3,1.1,0.5c0.1,0.1,0.2,0.1,0.2,0.1c0,0,0,0,0.1,0c0.8,1,1.2,2.7,1.1,4.5c0.2,0.9,0,2.2-0.4,3.5
		c-0.4,1.3-1.1,2.7-1.4,3.9c0,0-0.2,0.2-0.4,0.3c-0.2,0.2-0.4,0.3-0.4,0.3c-0.2,0.8-0.7,1.7-1.3,2.3l-0.1-0.1
		c-0.5,1.2-1.5,2.3-1.8,2.9l0-0.1l-0.8,1.1c0,0,0,0-0.1,0l0-0.2c0,0.1-0.1,0.1-0.1,0.2c-2.8-0.2-5.9,0.1-9.5-0.6
		c-1,0.6-3.5,0.3-4.2,0.8c-0.1-0.3-4.9,0.3-2.2-0.5c0.2-0.1,0.7-0.1,0.6,0l0.3-0.4c-2.8-0.5-5,0.8-7.8,1.2c0.8,0,1.9-0.2,1.2,0.1
		c0,0-0.6,0.1-1.3,0.2c-0.6,0.1-1.3,0.2-1.3,0.2l0.5-0.4c0,0-1,0.2-2,0.4c-1,0.2-2,0.5-2,0.5l0.7,0.2c-1.9,0.5-2.9,0.1-4.8,1.8
		c-0.8,0.8,2-0.5,0.1,0.7c-0.6,0.3-1.2,0.6-1.9,1.1c0,0,0-0.1,0-0.2c0.1,0.1,0.2,0.1,0.4-0.1c-0.1,0-0.2-0.1-0.2-0.1c0,0,0,0,0.1,0
		c-0.2-0.3-0.3-0.2-0.3-0.1c0,0-0.1,0-0.2,0.1c0.3-0.4-0.2-0.8,0.3-1c-0.3-0.9-0.9-1.4-1.3-2.1c0.3-0.1,0.5,0,0.7,0.2l-0.2-0.5
		c0.4-0.1,0.3,0.3,0.4,0.4c0.5-0.7-0.9-1.1-0.5-2l-0.3-0.1l0-0.1c-0.2,0-0.4-0.1-0.5-0.2c0.3-0.2,0.8-0.2,0.7-0.5
		c0.3-0.4-0.3-0.8-0.6-1.1c0,0.2-0.2,0.2-0.4,0.1c-0.1-0.2,0.3-0.4,0.1-0.5l0.5-0.1c-0.4,0.2-0.6-0.4-0.8-0.4
		c0.3-0.2,0.4,0.2,0.6,0.2c-0.2-0.7-0.1-0.3-0.3-1c-0.4-0.3-0.4,0.2-0.9,0.1c-0.2-0.3-0.6-0.6-0.4-1l-0.4,0.2
		c-0.5-0.5-0.5-0.9-0.2-1.4c-2.2-1.9-3.4-1.8-4.1-1.3C23.3,24,23.3,25,23.3,25c-0.4,2,1,2.6,1.8,4.7c0.2,1.9-0.5,2.6,0.2,4.4
		c0.1,0.9,0.5,1.9,0.7,2.7c0.7,0.3,0.2,1.2,0.8,1.6l-0.3,0.2c0.2,0.1,0.4,0.3,0.2,0.5l-0.1,0c0.3,0.2,0.2,0.5,0.3,0.6l-0.1,0
		l0.1,0.3l-0.2,0c0.3,0.4,0.4,0.9,0.3,1.3l0.3-0.1c-0.3,0.9-0.5,1.8-0.6,2.7c0.5-0.4,0.3,0.7,0.5,1.8L26.9,46c0.5,2,0.5,2.3,0.3,2.8
		c-0.1,0.2-0.1,0.4,0,0.8c0,0.2,0.1,0.5,0.2,0.8c0.1,0.2,0.1,0.4,0.2,0.6c0,0.1,0,0.3,0,0.4c0,0,0,0,0,0l0,0c0,0.9,0.2,1.7,0.3,2.6
		c0.2,1.2,0.2,2.4-0.4,3.5l-0.4,0.1c-0.6,0,0.9,0.7,0.3,0.7l0.3,0.3c-0.1,0.1-0.3,0.2-0.4,0.1c0,0.2,0.1,0.2,0.2,0.4l-0.4,0.2
		c-0.4,0.9,0.3,1.8,0.1,2.7c-0.9,1.1-0.4,3.4-0.2,4.7c0.7,1.9-2.1,3.7-1.3,5.7c-0.1,0,0.1,0.2,0.2,0.2l-0.3,1.7c0,0-0.4,2,0,3.4
		c0.4,1.4,1.6,2.1,4.7-0.7l0.1,0.1c0.5-0.9,0.6-1.5,0-2.2c0.9,0,0.2-0.8,0.5-0.9l0.1,0c-0.6-0.7,0.7-1.1,0.2-1.7
		c0.1,0,0.3,0.1,0.3,0.2c-0.1-0.4-0.2-1,0.3-1c0-1,0.4-2.3-0.3-3l0.1,0.1c-0.5-0.4,0-0.5-0.2-0.9c0.1,0,0.1,0,0.1,0
		c-0.5-0.4,0.1-1.1-0.1-1.5l0.3,0l0-0.8l-0.1,0.3c-0.9-0.2,0.6-0.5,0.1-1.1c0.2-0.5-1.8-1.3-1.3-1.7c-0.4-0.3,0.7,0.3,0.4-0.1
		c0.5,0,0.3,0.2,0.7,0.2c-0.2-0.4,0.6-0.6,0.3-1.1l0.4,0c-0.6-0.7,0.6-1.1,0-1.6c-0.3-0.7,1.1-0.3,0.5-1l0.5-0.2
		c0.1-0.3-0.6-0.2-0.3-0.5c0.3,0,0.3-0.4,0.6-0.2c0.5-0.7-0.5-1.4,0.2-2.3c0.3,0,0.6,0.1,0.9,0.1c-0.9-0.2-1-0.5-0.7-0.6
		c0.2,0,0.4,0,0.8,0c0.4,0,0.8,0.1,1.3,0.2l-0.6,0.3c0.6,0.1,1,0,1.3,0c0.3,0,0.6,0,1,0c-0.7,0.2-0.3,0.6,1.3,0.4l-1,0.5
		c0,0,0.8-0.2,1.5-0.5c0.7-0.3,1.4-0.6,1.4-0.6c0.5,0,1.1-0.1,1.8-0.3c0.6-0.2,1.2-0.4,1.7-0.6c1.1-0.4,2-0.8,2.5-0.8
		c0,0,1-0.4,2.1-1c1.1-0.6,2.1-1.3,2.4-1.8c-0.5,0.7,1.5-0.4,1.2,0.3c0.8-0.9,3.2-3,4.4-3.4l-0.2,0.2c4-2.6,5.8-5.6,9.1-8.2
		c-0.4-0.2,1.3-1.6,0.5-1.6c0.3-0.5,0.7-0.9,1.1-1.3c0.9-0.2,1.8-0.3,2,0l1.3-0.1c0.3,0.2,1.1,0.4,0.4,0.5c1.2,0.2,1.2,0.1,2.1,0.1
		l1.2,0.6c2.3,0.6,4.4,1,6.4,1.5c1,0.2,2,0.5,2.9,0.9c0.2,0.1,0.4,0.2,0.5,0.3c0.1,0,0.1,0.1,0.2,0.1l0.3,0.2
		c0.2,0.1,0.4,0.3,0.5,0.5c0.2,0.2,0.4,0.3,0.5,0.6c1.5,2.1,3.7,5.5,4.9,9.1c0.6,1.8,0.9,3.6,0.8,5.3c-0.1,0.4-0.1,0.8-0.2,1.2
		c-0.1,0.4-0.2,0.7-0.3,1.1c-0.1,0.4-0.3,0.7-0.4,1.1c-0.1,0.4-0.3,0.7-0.5,1c-0.9,1.8-2.4,3.5-4.2,4.8c-1.8,1.4-3.9,2.4-6.1,3.3
		c-2.2,0.9-4.5,1.5-6.7,2.1c-2.3,0.5-4.5,1.1-6.6,1.6c-0.3-0.1-1,0.2-1,0.3c0,0-2,0.2-4.1,0.1c-1,0-2-0.1-2.8-0.2
		c-0.8-0.1-1.3-0.2-1.3-0.2s-0.2,0-0.4,0c-0.3,0-0.7-0.1-1.2-0.2c-1-0.1-2.4-0.4-4-0.8c-3.2-0.8-7.1-2.1-10.3-3.1
		c-3.2-0.9-5.5-1.2-5.2-0.4c0.1,0.4,0.9,1.2,2.5,2.3c1.6,1.1,4,2.8,7.6,4.8l-0.3,0.1c4.5,1.9,7.8,2.6,11.3,2.3
		c0.1,0.2,0.4,0.4,0.9,0.5c0.4,0.1,1,0.1,1.5,0.1c1.1,0,2.3-0.1,2.9,0l-0.1,0.1c0.8-0.2,1.5-0.3,2.3-0.3c0.8,0,1.6-0.1,2.4-0.1
		c1.6-0.1,3.1-0.2,4.5-0.8c-0.1,0.1-0.1,0.3-0.8,0.5c2.1-0.5,4.9-1.6,5.2-1.1c2.5-0.8,5.4-2,7.9-3.5c0.6-0.4,1.2-0.7,1.8-1.1
		c0.6-0.4,1.1-0.8,1.6-1.2c0.9-0.8,1.8-1.6,2.2-2.3l-0.1,0.3c0.6-0.8,1-1.3,1.5-1.8c0.5-0.5,1-0.9,1.6-1.9c0.1-0.1,0.3-0.2,0.3-0.1
		c0.5-1,1.3-2.3,2-3.7c0.3-0.7,0.6-1.5,0.8-2.1c0.2-0.7,0.3-1.3,0.3-1.7l0.4-0.1c0,0,0-0.1,0-0.2c0-0.1,0-0.3,0-0.5
		c0-0.4,0.1-1,0.1-1.5C96.4,54.7,96.4,54.2,96.4,53.8z M31.5,36C31.5,36,31.4,36,31.5,36C31.4,36,31.4,36,31.5,36
		C31.4,36,31.5,36,31.5,36z M57.4,39.4c-1,1.1-2.1,2.1-3.9,3.1l0-0.1c-1.7,2-3.5,3-5.3,3.9c-1.8,0.9-3.6,1.7-5.7,3.1
		c0.5-0.4-0.3-0.1-0.3-0.2c-2.1,1-4.2,1.3-4.1,2.1c-1.5,0-1.2-0.3-1.3-0.6c0,0.4-1.2,0.4-2-0.1l0.4,0.1c0,0-0.1-0.1-0.3-0.2
		c-0.2-0.1-0.4-0.3-0.7-0.5c0,0,0,0,0,0c0-0.1,0.1-0.2,0.1-0.2c-0.2,0-0.2,0-0.3,0c-0.1-0.1-0.1-0.2-0.2-0.2c0,0,0,0,0,0l0.4,0
		c-0.5-0.7,0.8-0.2,0.4-0.9l-0.5-0.1c-0.7-0.6,0.8-0.3-0.3-1c0.1,0.3-0.8,0.1-0.7-0.2l0.4,0.1c-0.1-0.2-0.2-0.2-0.2-0.3
		c0.2,0.1,0.5,0,0.5-0.2l0.5,0.2l-0.7-0.5c0.4-0.4-0.1-1,0.4-1.1c0,0,0.2-0.8-0.4-1c0.4,0.1,0.5-0.3,0.9-0.2
		c-0.4-0.2-0.8-0.8-0.4-1.1l0.1,0c0.1-0.4,0.1-0.7-0.1-1c1-1.6,3.1-3,5.7-3.9c2.6-1,5.5-1.6,8.5-2c4.3-0.5,8.8-0.6,13-0.1
		C59.4,37.4,58.4,38.4,57.4,39.4z"/>
	<path fill="#ffffff" d="M43,3.9L43,4C43,3.9,43,3.9,43,3.9z"/>
	<path fill="#ffffff" d="M30.7,30.2l-0.1,0.2C30.6,30.3,30.7,30.3,30.7,30.2z"/>
	<path fill="#ffffff" d="M26,36.8L26,36.8C25.9,36.8,25.9,36.8,26,36.8L26,36.8z"/>
	<polygon fill="#ffffff" points="34.4,48.5 34.4,48.5 34.7,48.5 	"/>
</g>
</svg>
