<?xml version="1.0" encoding="utf-8"?>
<!-- Generator: Adobe Illustrator 18.1.1, SVG Export Plug-In . SVG Version: 6.00 Build 0)  -->
<svg version="1.1" id="Layer_1" xmlns="http://www.w3.org/2000/svg" xmlns:xlink="http://www.w3.org/1999/xlink" x="0px" y="0px"
	 viewBox="0 0 282 23" enable-background="new 0 0 282 23" xml:space="preserve">
<polygon fill="#E0FF2E" points="274.7,23 7.3,23 0,11.5 7.3,0 274.7,0 282,11.5 "/>
<g>
	<path d="M21.5,15.4V7.6H26V9h-2.9v1.8h2.8v1.4h-2.8v3.3H21.5z"/>
	<path d="M31.9,15.4l-1.2-2.8h-0.9v2.8h-1.6V7.6h2.9c1.4,0,2.4,1,2.4,2.5c0,1.3-0.7,2-1.4,2.2l1.4,3.1H31.9z M32,10.1
		c0-0.7-0.4-1.1-1-1.1h-1.1v2.2h1.1C31.5,11.2,32,10.8,32,10.1z"/>
	<path d="M35.6,11.5c0-2.3,1.2-4,3.3-4c2,0,3.3,1.7,3.3,4s-1.2,4-3.3,4C36.8,15.5,35.6,13.8,35.6,11.5z M40.5,11.5
		c0-1.5-0.6-2.6-1.7-2.6c-1.1,0-1.7,1.1-1.7,2.6c0,1.5,0.6,2.6,1.7,2.6C39.9,14.1,40.5,13,40.5,11.5z"/>
	<path d="M50,15.4v-5.2l-1.8,5.2h-0.6l-1.8-5.2v5.2h-1.6V7.6h2.1l1.5,4.6l1.5-4.6h2.1v7.8H50z"/>
	<path d="M57.7,15.4V7.6H61c1.4,0,2.1,0.9,2.1,2c0,1-0.5,1.6-1.3,1.8c0.8,0.1,1.4,0.9,1.4,1.9c0,1.2-0.7,2.1-2.1,2.1H57.7z
		 M61.5,9.9c0-0.5-0.3-0.9-0.8-0.9h-1.3v1.8h1.3C61.2,10.7,61.5,10.4,61.5,9.9z M61.6,13.1c0-0.5-0.3-1-0.9-1h-1.4V14h1.4
		C61.3,14,61.6,13.7,61.6,13.1z"/>
	<path d="M65.4,15.4V7.6h4.5V9H67v1.8h2.8v1.4H67V14h2.9v1.4H65.4z"/>
	<path d="M71.8,14.5l0.8-1.2c0.4,0.5,1.1,0.8,1.9,0.8c0.7,0,1.1-0.4,1.1-0.9c0-1.4-3.5-0.9-3.5-3.5c0-1.2,1-2.3,2.6-2.3
		c1,0,1.8,0.3,2.4,0.9l-0.7,1.2c-0.5-0.5-1.1-0.7-1.7-0.7c-0.6,0-0.9,0.3-0.9,0.8c0,1.2,3.5,0.9,3.5,3.5c0,1.4-0.9,2.4-2.7,2.4
		C73.2,15.5,72.4,15.1,71.8,14.5z"/>
	<path d="M80.4,15.4V9h-1.7V7.6h5.1V9H82v6.4H80.4z"/>
	<path d="M85,12v-1.2h2.5V12H85z"/>
	<path d="M89.2,14.5l0.8-1.2c0.4,0.5,1.1,0.8,1.9,0.8c0.7,0,1.1-0.4,1.1-0.9c0-1.4-3.5-0.9-3.5-3.5c0-1.2,1-2.3,2.6-2.3
		c1,0,1.8,0.3,2.4,0.9l-0.7,1.2c-0.5-0.5-1.1-0.7-1.7-0.7c-0.6,0-0.9,0.3-0.9,0.8c0,1.2,3.5,0.9,3.5,3.5c0,1.4-0.9,2.4-2.7,2.4
		C90.7,15.5,89.8,15.1,89.2,14.5z"/>
	<path d="M96.7,15.4V7.6h4.5V9h-2.9v1.8h2.8v1.4h-2.8V14h2.9v1.4H96.7z"/>
	<path d="M103.5,15.4V7.6h1.6V14h2.6v1.4H103.5z"/>
	<path d="M109.8,15.4V7.6h1.6V14h2.6v1.4H109.8z"/>
	<path d="M116.1,15.4V7.6h1.6v7.8H116.1z"/>
	<path d="M124.5,15.4l-2.7-4.7v4.7h-1.6V7.6h1.6l2.6,4.6V7.6h1.6v7.8H124.5z"/>
	<path d="M128.2,11.5c0-2.4,1.3-4,3.3-4c1.3,0,2.2,0.8,2.6,1.8l-1.3,0.6c-0.2-0.5-0.7-1-1.3-1c-1,0-1.7,0.9-1.7,2.6
		c0,1.7,0.7,2.6,1.7,2.6c0.5,0,1-0.2,1.2-0.5v-1.2h-1.5v-1.4h3v3.2c-0.7,0.8-1.5,1.2-2.7,1.2C129.5,15.5,128.2,13.9,128.2,11.5z"/>
	<path d="M144.3,15.4L144,14h-2.4l-0.4,1.4h-1.7l2.3-7.8h1.9l2.3,7.8H144.3z M142.8,9.2l-0.9,3.4h1.8L142.8,9.2z"/>
	<path d="M147.7,12.7V7.6h1.6v5.1c0,0.9,0.5,1.4,1.3,1.4c0.8,0,1.3-0.5,1.3-1.4V7.6h1.6v5.1c0,1.8-1.1,2.8-2.9,2.8
		C148.8,15.5,147.7,14.5,147.7,12.7z"/>
	<path d="M157.3,15.4V9h-1.7V7.6h5.1V9h-1.7v6.4H157.3z"/>
	<path d="M166.9,15.4v-3.3h-2.6v3.3h-1.6V7.6h1.6v3.1h2.6V7.6h1.6v7.8H166.9z"/>
	<path d="M170.7,11.5c0-2.3,1.2-4,3.3-4c2,0,3.3,1.7,3.3,4s-1.2,4-3.3,4C171.9,15.5,170.7,13.8,170.7,11.5z M175.6,11.5
		c0-1.5-0.6-2.6-1.7-2.6c-1.1,0-1.7,1.1-1.7,2.6c0,1.5,0.6,2.6,1.7,2.6C175,14.1,175.6,13,175.6,11.5z"/>
	<path d="M183.1,15.4l-1.2-2.8H181v2.8h-1.6V7.6h2.9c1.4,0,2.4,1,2.4,2.5c0,1.3-0.7,2-1.4,2.2l1.4,3.1H183.1z M183.2,10.1
		c0-0.7-0.4-1.1-1-1.1H181v2.2h1.1C182.8,11.2,183.2,10.8,183.2,10.1z"/>
	<path d="M190.1,14.9l0.6-1.2c0.2,0.3,0.6,0.4,1,0.4c0.6,0,1-0.4,1-1.1V7.6h1.6v5.5c0,1.7-1,2.4-2.4,2.4
		C191.2,15.5,190.6,15.4,190.1,14.9z"/>
	<path d="M196.5,11.5c0-2.3,1.2-4,3.3-4c2,0,3.3,1.7,3.3,4s-1.2,4-3.3,4C197.7,15.5,196.5,13.8,196.5,11.5z M201.4,11.5
		c0-1.5-0.6-2.6-1.7-2.6c-1.1,0-1.7,1.1-1.7,2.6c0,1.5,0.6,2.6,1.7,2.6C200.8,14.1,201.4,13,201.4,11.5z"/>
	<path d="M209.4,15.4v-3.3h-2.6v3.3h-1.6V7.6h1.6v3.1h2.6V7.6h1.6v7.8H209.4z"/>
	<path d="M217.8,15.4l-2.7-4.7v4.7h-1.6V7.6h1.6l2.6,4.6V7.6h1.6v7.8H217.8z"/>
	<path d="M225.1,11.5c0-2.4,1.3-4,3.3-4c1.3,0,2.2,0.8,2.6,1.8l-1.3,0.6c-0.2-0.5-0.7-1-1.3-1c-1,0-1.7,0.9-1.7,2.6
		c0,1.7,0.7,2.6,1.7,2.6c0.5,0,1-0.2,1.2-0.5v-1.2h-1.5v-1.4h3v3.2c-0.7,0.8-1.5,1.2-2.7,1.2C226.4,15.5,225.1,13.9,225.1,11.5z"/>
	<path d="M237.1,15.4l-1.2-2.8H235v2.8h-1.6V7.6h2.9c1.4,0,2.4,1,2.4,2.5c0,1.3-0.7,2-1.4,2.2l1.4,3.1H237.1z M237.2,10.1
		c0-0.7-0.4-1.1-1-1.1H235v2.2h1.1C236.8,11.2,237.2,10.8,237.2,10.1z"/>
	<path d="M241.1,15.4V7.6h4.5V9h-2.9v1.8h2.8v1.4h-2.8V14h2.9v1.4H241.1z"/>
	<path d="M247.9,15.4V7.6h4.5V9h-2.9v1.8h2.8v1.4h-2.8V14h2.9v1.4H247.9z"/>
	<path d="M259,15.4l-2.7-4.7v4.7h-1.6V7.6h1.6l2.6,4.6V7.6h1.6v7.8H259z"/>
</g>
</svg>
