<?xml version="1.0" encoding="utf-8"?>
<!-- Generator: Adobe Illustrator 18.1.1, SVG Export Plug-In . SVG Version: 6.00 Build 0)  -->
<svg version="1.1" id="Layer_1" xmlns="http://www.w3.org/2000/svg" xmlns:xlink="http://www.w3.org/1999/xlink" x="0px" y="0px"
	 viewBox="0 0 110 82" enable-background="new 0 0 110 82" xml:space="preserve">
<g>
	<path fill="#ffffff" d="M57.6,9.3l-0.4-0.2C57.2,9.2,57.3,9.3,57.6,9.3z"/>
	<path fill="#ffffff" d="M62.7,70.6C62.7,70.6,62.7,70.6,62.7,70.6C62.7,70.6,62.7,70.6,62.7,70.6z"/>
	<path fill="#ffffff" d="M38.6,7.4C38.6,7.4,38.6,7.4,38.6,7.4c0-0.1,0.1-0.1,0.1-0.1L38.6,7.4z"/>
	<path fill="#ffffff" d="M63.9,2.8c-3.4-0.9-5.7-1.2-8-1.4c-2.4-0.1-4.8,0.1-8.2,1.4c-1.7,0.5-3.3,1.2-4.8,2
		c-0.8,0.4-1.5,0.8-2.2,1.3C40,6.6,39.2,7,38.6,7.4c-0.4,0.8-1.3,1.3-2.2,1.9c-0.9,0.6-1.8,1.3-2.3,2.1l-0.8,0.1
		c-0.3,0.6-0.8,1.2-1.4,1.4l-0.1-0.1c-0.5,0.9-1.4,1.5-1.6,1.9l0.2-0.1l-0.5,0.8V15c-1,0.7-1.2,1.4-1.7,2c-0.5,0.6-1.2,1.2-1.7,1.7
		l0.5,0.3c-0.6,0.5-1.1,1-1.5,1.5c-0.3,0.5-0.6,1-0.8,1.4c-0.5,0.9-0.9,1.8-2,2.8l-0.1-0.1c-0.2,1-0.4,1.7-0.7,2.4
		c-0.3,0.7-0.8,1.2-1.2,1.9c-0.4,0.6-0.8,1.3-1.1,2c-0.3,0.8-0.4,1.6-0.3,2.6c0-0.5-0.3,0.1-0.5,0c-0.3,1.7-0.6,3.6,0.6,3.8
		c-0.2,1.2-0.5,1-0.9,1.1c0.5,0.1,0.5,1.1,0.5,2.1L18.6,40c0,0,0,0.7,0,1.4c0,0.3,0,0.7,0,1c0,0.3,0,0.4,0,0.4s0.2-0.1,0.5-0.3
		c0.2-0.1,0.5-0.3,0.5-0.3c-0.2,1.4-1.1,0.4-0.9,1.8l0.8-0.1c0,0.5-0.1,1-0.2,1.4c-0.1,0.4-0.2,0.9-0.3,1.3
		c-0.2,0.9-0.6,1.8-0.6,2.8c0.9,4.2,3.2,8.1,5.8,11.3c2.7,3.3,5.7,5.9,8.3,8.7l-0.1,0.7c-0.2,0.4,0.4,0.5,1.1,0.5
		c0.6,0.1,1.3,0.1,1.2,0.5l1,0.1c0.1,0.3,0.5,0.7,0,0.6c0.7,0.5,0.8,0.4,1.4,0.4l0.5,0.9c0.7,0.5,1.4,0.9,2.1,1.1
		c0.7,0.3,1.5,0.5,2.2,0.7c0.7,0.2,1.5,0.4,2.3,0.6c0.8,0.2,1.5,0.5,2.3,0.7c0.5,0.3,1,0.5,1.6,0.7c0.3,0.1,0.6,0.2,0.9,0.3
		c0.3,0.1,0.6,0.2,1,0.2c0.7,0.1,1.4,0.3,2.1,0.4c0.7,0.1,1.5,0.1,2.3,0.1c1.5,0.1,3-0.2,4.4-0.3c1.4-0.2,2.7-0.6,3.7-0.8
		c2.9-1.1,6.2-1.3,9.5-2c3.3-0.7,6.7-1.9,9-4.3c0.3,0,0.5-0.6,0.5-0.6c0,0,0.3-0.2,0.7-0.5c0.4-0.3,1.1-0.7,1.6-1.2
		c1.1-1,2.2-1.9,2.2-1.9s0.3-0.3,0.8-0.9c0.5-0.6,1.2-1.3,1.9-2.3c0.3-0.5,0.7-1,1.1-1.6c0.3-0.6,0.6-1.2,0.9-1.8
		c0.6-1.2,0.9-2.5,1.2-3.6c0.2-1.1,0.2-2.2,0.1-2.8c-0.1-0.7-0.5-1-1-0.9c-1.1,0.1-2.6,2.1-6.4,4.9L84.6,57
		c-0.4,0.5-0.8,0.9-1.2,1.3c-0.4,0.4-0.7,0.8-0.9,1.1c-0.6,0.7-1,1.5-1.3,2.4c-0.5-0.3-0.9,0-1.3,0.4c-0.4,0.4-0.7,1-1.1,1l0-0.1
		c-0.4,0.8-1.1,1.2-1.9,1.5c-0.8,0.3-1.6,0.5-2,1.3c0-0.1-0.1-0.4,0.2-0.6c-0.9,0.7-2.2,1.6-2.5,1.1c-2.3,1.4-5.9,2.2-7.4,3.6
		l0.1-0.2c-0.8,1-1.2,0.3-2.3,0.9c-0.1-0.1-0.2-0.1-0.2-0.1c-0.2,0.2-0.6,0.4-0.9,0.5c-0.4,0.1-0.8,0.1-1.1,0.1
		c-0.8,0-1.5,0.1-2,0.2L58.6,71l-2.2,0.1l0.8,0.1c-0.1,0.6-0.6,0.4-1.1,0.2c-0.6-0.3-1.3-0.6-2.1-0.3c-0.7-0.1-1.5,0.4-2.4,0.8
		c-0.9,0.4-1.8,0.9-2.5,0.3c-0.9,0.4,0.9-0.7-0.3-0.6c0.1-0.6,0.6-0.3,0.4-0.8c-1.1,0-1.6-1-2.9-1.1l0.1-0.5c-0.5,0.1-0.9,0-1.3-0.1
		c-0.4-0.1-0.7-0.4-1-0.6c-0.6-0.5-1.2-0.8-1.9-0.7c-1.8-0.5-0.4-1.8-2.4-1.9L39.5,65c-0.6-0.5-0.9,0.4-1.5-0.3c0.3-0.3-0.7-0.9,0-1
		c-0.6-0.8-1.5-1.2-2.4-1.8c-0.5-0.3-0.9-0.6-1.3-1c-0.4-0.4-0.7-0.9-1-1.6c-1,0.2-1.4-1.1-2.2-1c0.1-0.1-0.3-0.6-0.5-1
		c-0.2-0.4-0.3-0.7,0.5-0.3c0.1,0.1,0.2,0.2,0.1,0.3l0.5-0.2c-0.1-1.7-1.9-1.7-2.5-3c0.1,0.4,0.4,0.9-0.1,0.7l-0.6-1.2l0.5,0
		c0,0,0-0.1-0.1-0.3c-0.1-0.2-0.2-0.4-0.2-0.6c-0.1-0.5-0.3-0.9-0.3-0.9L28,52.4c-0.2-1,0.5-1.6-0.5-2.3c-0.5-0.3-0.3,1.1-0.8,0.2
		c0-0.3-0.1-0.7-0.1-1.1c0-0.4,0-0.8,0-1.2c0-0.4,0-0.8-0.1-1.2c0-0.4,0-0.8,0-1.2c-0.5,0.2-0.6-0.2-0.8-0.6l0.5-0.1
		c-0.8-1.6,1.1-0.7,0.4-2.2l0.4,0.1c0,0-0.3-0.1-0.5-0.2c-0.3-0.1-0.5-0.2-0.5-0.2c-0.9-1.5,1-0.7-0.2-2.5c0,0.7-1.1,0.2-0.8-0.6
		l0.4,0.3c0-0.5-0.2-0.7-0.1-0.9c0.2,0.3,0.7,0.2,0.7-0.4l0.5,0.5c0,0-0.2-0.3-0.4-0.7c-0.1-0.4-0.3-0.7-0.3-0.7
		c0.4-0.4,0.5-1.1,0.6-1.6c0.2-0.5,0.3-1,0.7-1.1c0,0,0.2-0.5,0.4-1c0.2-0.5,0.4-1.2,0.1-1.6c0.3,0.6,0.9-0.4,1.2,0.1
		c-0.3-0.7,0.1-2.4,0.9-2.7l0,0.1c0.9-0.9,1.2-1.9,1.6-2.8c0.2-0.5,0.4-0.9,0.7-1.4c0.3-0.4,0.7-0.8,1.1-1.1c-0.5-0.3,0.5-1-0.3-1.3
		c0.5-1.1,1.5-1.7,2.3-2.1c0.8-0.5,1.2-0.9,0.8-2.1c0.7-0.8,1.3-0.4,1.8-0.7l-0.1,0.3c0.7-0.7,1.2-1.2,1.7-1.5
		c0.5-0.4,0.9-0.7,1.5-1.1c0.5-0.6,0-1.5,1.3-2.1c-0.2,0.6,0.3,0.2,0.7,0c-0.2,0.2-0.3,0.4,0.5,0.3c0-0.2,0.1-0.3,0.2-0.4
		c0,0,0.1,0,0.1,0.1c0.7-0.5,0.5-0.6,0.1-0.4c0-0.1-0.1-0.1-0.2-0.2c1,0.1,2.2-1.2,2.6-0.6c2.2-1.2,3.6-2.6,5.6-3.4
		c0.3,0.3-0.1,0.7-0.6,1c0,0,0.3-0.1,0.7-0.3c0.3-0.1,0.7-0.2,0.7-0.2c0.1,0.5-0.7,0.5-1.1,0.7c0.9,0.2,1.7-0.2,2.6-0.6
		c0.8-0.4,1.8-0.7,2.8-0.4L57,9l0.1,0.1c0-0.2,0.4-0.5,0.7-0.6c0.3,0.5,0,1.1,0.9,1.1c0.4,0.2,0.9,0.2,1.5,0.2
		c0.6-0.1,1.2-0.2,1.8-0.2c-0.5-0.2-0.3-0.4,0-0.5c0.5,0.1,0.7,0.6,1.1,0.5l-0.1,0.6c-0.1-0.6,1.4-0.3,1.7-0.5
		c0.1,0.5-0.9,0.2-1.1,0.5c1,0.2,1.2,0.3,1.4,0.4c0.2,0.1,0.5,0.1,1.4,0.5c1.2,0,0-0.6,0.7-0.9c0.5,0.1,1,0.2,1.5,0.4
		c0.5,0.1,1,0.4,1.4,0.8l0-0.7c0.5,0.1,0.9,0.3,1.3,0.4c0.4,0.2,0.7,0.4,1,0.6c0.6,0.4,1,0.9,1.3,1.5c3.5,1.3,5.5,2.3,6.8,2.6
		c1.3,0.3,1.7-0.2,1.8-0.9c0-0.8-0.4-1.9-1-2.8c-0.5-0.9-1.1-1.6-1.1-1.6c-2.1-2.8-4.4-4.3-6.9-5.3c-1.3-0.5-2.6-1-4.2-1.4
		c-0.8-0.2-1.6-0.4-2.4-0.6C65.8,3.1,64.9,2.9,63.9,2.8z"/>
</g>
</svg>
