<?xml version="1.0" encoding="utf-8"?>
<!-- Generator: Adobe Illustrator 18.1.1, SVG Export Plug-In . SVG Version: 6.00 Build 0)  -->
<svg version="1.1" id="Layer_1" xmlns="http://www.w3.org/2000/svg" xmlns:xlink="http://www.w3.org/1999/xlink" x="0px" y="0px"
	 viewBox="0 0 110 82" enable-background="new 0 0 110 82" xml:space="preserve">
<g>
	<path fill="#ffffff" d="M36.5,15.7l-0.2,0.2C36.4,15.9,36.5,15.9,36.5,15.7z"/>
	<path fill="#ffffff" d="M30.6,23.2C30.6,23.2,30.6,23.2,30.6,23.2C30.6,23.1,30.6,23.1,30.6,23.2L30.6,23.2z"/>
	<polygon fill="#ffffff" points="38,39.6 38,39.6 38.2,39.6 	"/>
	<path fill="#ffffff" d="M41.6,2.6l0.1,0.2C41.7,2.7,41.6,2.6,41.6,2.6z"/>
	<path fill="#ffffff" d="M46.2,8.7C46.2,8.7,46.2,8.7,46.2,8.7C46.2,8.7,46.2,8.7,46.2,8.7L46.2,8.7z"/>
	<path fill="#ffffff" d="M81.9,4.6l0-0.1C81.1,4.1,80.6,4,80,4.6c0-0.9-0.7-0.1-0.8-0.4l0-0.1c-0.5,0.6-1-0.6-1.5,0
		c0-0.1,0-0.3,0.2-0.3C77.5,3.9,77,4.1,77,3.6c-0.8,0.1-2-0.2-2.6,0.6l0-0.1c-0.3,0.5-0.3,0.2-0.6,0.2c-0.4,0.4-0.9,0-0.9,0.2V4.1
		l-0.9,0l0.1,0.1c-0.1,0.9-0.5-0.6-1.1,0c-0.4-0.1-1,1.9-1.5,1.4c-0.2,0.4,0.2-0.7-0.1-0.4c0-0.5,0.3-0.3,0.3-0.7
		C69.4,4.7,69,4,69,4.3V3.9c-1,0.7-1.1-0.5-1.5,0.1c-0.6,0.3-0.4-1.1-1-0.4l-0.2-0.5C66,3,66,3.7,65.7,3.4c0-0.3-0.3-0.3-0.2-0.6
		c-0.6-0.5-1.3,0.6-2-0.2c-0.2,0.6-0.6,0.2-0.7,0.7c0-0.3-0.8-0.1-0.3-0.6c0,0,0.1,0,0.1,0.1l0.1-0.4c-0.4-0.7-0.8,0.3-1.3,0.2
		c0.1,0.1,0.3,0.1,0.2,0.4l-0.4-0.1l0.1-0.3l-0.6-0.2l0.1,0.4c-0.3-0.2-0.4-0.9-0.7-0.3c-0.2,0.3,0.3,0.5-0.1,0.6
		c-0.4-0.3-1-0.7-1.5-0.8c0,0.4-0.1,0.4-0.3,0.5l0-0.4c-0.6,0.5-0.2-0.8-0.7-0.4l0.1-0.3l-0.2,0.8c-0.5,0.7-0.2-0.8-0.8,0.2
		c0.2-0.1,0.1,0.8-0.2,0.7l0.1-0.4C56.2,2.9,56.1,3,56,3c0.1-0.2,0.1-0.5-0.1-0.5L56,2.1l-0.4,0.6c-0.3-0.4-0.8,0.1-0.9-0.5
		c0,0-0.7-0.3-0.9,0.3C54,2.2,53.6,2,53.7,1.6C53.5,2,53,2.3,52.8,1.9l0,0c-0.8-0.5-1.4,0.5-2,0c0,0.4-0.3,0.2-0.3,0.7
		C49.8,3,49.3,1.3,48.9,3c-0.3,0.1-0.4-0.4-0.5-0.5l0.1-0.1c-0.6,0.1-0.8,0.1-1.3,0.1c-0.2,0.2-0.3,0.9-0.7,0.7
		c0.1-0.3,0-0.3-0.2-0.3c0.1,0,0.1-0.2-0.1-0.4c0,0.1-0.1,0.2-0.1,0.2c0,0,0,0,0-0.1c-0.3,0.1-0.2,0.2-0.1,0.2c0,0,0,0.1,0,0.2
		c-0.2-0.4-0.7,0-0.7-0.6c-0.8,0.1-1.3,0.6-2,0.8c-0.1-0.3,0.1-0.5,0.3-0.6l-0.5,0.1c0-0.4,0.3-0.2,0.4-0.3c-0.5-0.7-1.1,0.6-1.7,0
		l-0.1,0.3l0-0.1c0,0.2-0.2,0.4-0.3,0.4c-0.1-0.4,0-0.8-0.3-0.8c-0.2-0.4-0.7,0.1-1,0.3c0.2,0.1,0.1,0.3,0,0.4
		c-0.2,0-0.2-0.4-0.4-0.2l0-0.5c0,0.4-0.4,0.5-0.5,0.6c-0.1-0.4,0.3-0.3,0.3-0.6c-0.6,0-0.3,0-0.9,0c-0.4,0.3,0,0.4-0.1,0.9
		c-0.3,0.1-0.6,0.4-0.9,0.1l0.1,0.4c-0.6,0.3-0.9,0.2-1.3-0.2c-1.5,1.1-2.1,2-2.2,2.7c-2.6-3.6-3.6,0.3-3.6,0.3
		c-0.9,2.5,0.3,3.7,0.6,6.7c-0.2,2.6-1,3.3-0.7,5.9c-0.1,1.3,0.1,2.6,0.2,3.9c0.6,0.6,0,1.6,0.5,2.3l-0.4,0.3
		c0.2,0.2,0.3,0.5,0.1,0.8l-0.1,0c0.3,0.4,0.1,0.8,0.2,0.9l-0.1,0l0,0.4l-0.1-0.1c0.3,0.6,0.3,1.3,0.2,1.8l0.4,0
		c-0.5,1.2,0.4,1.7-0.2,2.8l-0.1,0c1.1,1.4-0.8,2.2,0.3,3.6c-0.1-0.2-0.2,0.1-0.3,0.1c0.1,0.7,0.2,1.4,1,1.4c0,0.5-0.3,0.4-0.6,0.5
		c0.4,0,0.5,0.4,0.5,0.8l-0.1-0.2l0.1,1.1l0.7-0.2c-0.2,0.6-0.9,0.1-0.7,0.7l0.6,0c-0.1,0.8-1,1.2-1.4,2c-0.3,3.2,1.2,6.6,0.2,9.5
		l-0.4,0.1c-0.6,0.1,0.9,0.8,0.4,0.9l0.3,0.3c-0.1,0.1-0.2,0.3-0.4,0.1c0,0.3,0.1,0.3,0.3,0.6L31.1,54c-0.3,1.3,0.4,2.3,0.3,3.6
		c-0.8,1.6-0.1,4.6,0.3,6.3c0.9,2.4-1.6,5.2-0.5,7.7c-0.1,0.1,0.1,0.3,0.2,0.3l-0.1,2.3c0,0-0.3,11,5.1,2.7l0.1,0.1
		c0.3-1.2,0.4-2-0.3-2.9c0.9-0.1,0.1-1,0.4-1.3l0.1,0c-0.7-0.8,0.6-1.6,0-2.3c0.1,0,0.3,0,0.3,0.2c-0.1-0.5-0.3-1.3,0.2-1.3
		c-0.1-1.3,0.1-3-0.7-3.8l0.1,0.1c-0.5-0.5-0.1-0.6-0.3-1.1c0.1,0,0.1-0.1,0.1-0.1c-0.5-0.5-0.1-1.5-0.3-1.9l0.3,0l-0.1-1l-0.1,0.4
		c-0.9-0.1,0.6-0.8,0-1.5c0.1-0.7-1.9-1.4-1.4-2.1c-0.4-0.3,0.7,0.3,0.4-0.2c0.5,0,0.3,0.2,0.7,0.1c-0.2-0.5,0.5-0.8,0.2-1.4l0.4,0
		c-0.7-0.8,0.5-1.5-0.1-2c-0.3-0.8,1.1-0.5,0.4-1.4l0.5-0.3c0.1-0.4-0.6-0.3-0.4-0.7c0.3,0,0.3-0.5,0.6-0.3c0.5-0.9-0.7-1.9,0.2-3.1
		c-0.6-0.3-0.2-0.9-0.7-1.1c0.3,0,0.1-1.2,0.6-0.5c0,0.1,0,0.2-0.1,0.2l0.4,0.1c0.7-0.7-0.4-1.3-0.3-1.9c-0.1,0.2-0.1,0.5-0.3,0.3
		l0.1-0.6l0.3,0.1l0.2-0.9l-0.4,0.1c0.2-0.5,0.9-0.6,0.3-1.1c-0.3-0.2-0.5,0.4-0.6-0.1c0.1-0.3,0.3-0.8,0.5-1.2c0,0.1,0,0.2,0,0.3
		c0.1,0.8,0.6,1.1,0.6,1.1c1,1,1.6-0.2,2.9-0.5c1.1,0.3,1.3,1.1,2.5,0.8c0.5,0.1,1.1-0.1,1.7-0.2c0.3-0.6,0.7,0,1-0.5l0.1,0.4
		c0.1-0.2,0.2-0.3,0.3-0.1l0,0.1c0.2-0.3,0.3-0.1,0.4-0.2l0,0.1l0.2,0l0,0.1c0.3-0.3,0.5-0.3,0.8-0.2l0-0.4c0.5,0.5,0.7-0.4,1.2,0.1
		l0,0.1c0.6-1.2,1,0.8,1.5-0.4c-0.1,0.1,0,0.2,0,0.3c0.3-0.1,0.6-0.2,0.5-1.1c0.2,0,0.2,0.3,0.2,0.6c0-0.4,0.2-0.5,0.3-0.6l-0.1,0.1
		l0.4-0.2l-0.1-0.7c0.2,0.2,0.1,0.9,0.3,0.7l0-0.6c0.3,0.1,0.6,1,0.9,1.4c1.4,0.2,2.7-1.4,4-0.5l0.1,0.4c0.1,0.6,0.3-1,0.4-0.4
		l0.1-0.3c0.1,0.1,0.1,0.2,0.1,0.4c0.1,0,0.1-0.1,0.2-0.3l0.2,0.4c0.6,0.3,0.9-0.6,1.5-0.5c0.8,0.7,1.9-0.2,2.6-0.7
		c0.9-1.1,2.4,1.3,3.3,0c0,0.1,0.1-0.1,0.1-0.2l1-0.1c0,0,1.2-0.1,1.7-0.9c0.6-0.7,0.6-2-1.6-4.3l0-0.1c-0.6-0.2-0.9-0.3-1.1,0.5
		c-0.2-0.8-0.6,0-0.6-0.3v-0.1c0,0.7-0.7-0.4-0.9,0.2c0-0.1,0-0.3,0-0.3c-0.2,0.1-0.5,0.4-0.5-0.1c-0.5,0.2-1.2,0.1-1.4,0.9l0-0.1
		c-0.1,0.6-0.2,0.1-0.4,0.4c0-0.1,0-0.1,0-0.1c-0.1,0.6-0.6,0.2-0.7,0.4l-0.1-0.3L60.5,37l0.2,0.1c0.1,0.9-0.4-0.5-0.6,0.1
		c-0.3-0.1-0.3,2-0.7,1.5c-0.1,0.4,0-0.7-0.1-0.4c-0.1-0.5,0.1-0.3,0-0.7c-0.2,0.2-0.4-0.4-0.6-0.1l-0.1-0.4
		c-0.2,0.7-0.7-0.4-0.8,0.2c-0.3,0.3-0.3-1.1-0.6-0.3L57,36.6c-0.2-0.1,0,0.6-0.2,0.4c0-0.3-0.2-0.2-0.2-0.5c-0.4-0.5-0.7,0.8-1.2,0
		c-0.1,0.6-0.3,0.3-0.4,0.7c0-0.3-0.5,0-0.3-0.6c0,0,0.1,0,0.1,0.1l0-0.4c-0.3-0.7-0.5,0.4-0.8,0.3c0.1,0.1,0.2,0.1,0.1,0.3l-0.3,0
		l0-0.3l-0.4-0.2l0.1,0.4c-0.2-0.2-0.3-0.8-0.5-0.3c-0.1,0.3,0.2,0.5,0,0.6c-0.3-0.2-0.7-0.6-1-0.7c0.1,0.4,0,0.4-0.1,0.5l0-0.4
		c-0.3,0.5-0.2-0.8-0.5-0.4l0-0.3l0,0.8c-0.3,0.8-0.2-0.8-0.5,0.3c0.1-0.1,0.1,0.8-0.1,0.7l0-0.4c-0.1,0.1-0.1,0.2-0.2,0.2
		c0-0.2,0-0.5-0.1-0.5l0.1-0.5l-0.2,0.7c-0.2-0.4-0.5,0.1-0.6-0.4c0,0-0.4-0.2-0.5,0.3c0.1-0.3-0.2-0.5-0.1-0.9
		c-0.1,0.4-0.4,0.7-0.5,0.3l0,0c-0.5-0.4-0.8,0.6-1.2,0.1c0,0.4-0.2,0.2-0.1,0.8c-0.4,0.6-0.8-1.1-1,0.6c-0.2,0.1-0.2-0.4-0.3-0.5
		l0-0.1c-0.4,0.1-0.5,0.2-0.8,0.1c-0.1,0.2-0.2,1-0.4,0.8c0.1-0.3,0-0.3-0.1-0.3c0.1,0,0.1-0.2,0-0.4c0,0.1,0,0.2-0.1,0.2
		c0,0,0,0,0-0.1c-0.2,0.1-0.1,0.2-0.1,0.3c0,0,0,0.1,0,0.2c-0.2-0.4-0.5,0-0.5-0.5c-0.5,0.1-0.8,0.7-1.2,0.9c0-0.3,0.1-0.5,0.2-0.6
		L43.1,38c0-0.4,0.2-0.2,0.3-0.3c-0.3-0.7-0.7,0.6-1.1,0l-0.1,0.3l0-0.1c0,0.2-0.1,0.4-0.2,0.4c0-0.4,0-0.8-0.2-0.8
		c-0.1-0.3-0.4,0.2-0.6,0.3c0.1,0.1,0.1,0.3,0,0.4c-0.1,0-0.1-0.3-0.2-0.2l0-0.5c0,0.4-0.3,0.5-0.3,0.7c0-0.4,0.2-0.3,0.2-0.6
		c-0.4,0-0.2,0-0.6,0c-0.2,0.3,0,0.4-0.1,0.9c-0.2,0.1-0.4,0.4-0.6,0.1l0,0.4c-0.4,0.3-0.6,0.2-0.8-0.2c-0.7,0.8-1.1,1.5-1.3,2.1
		c-0.3,0-0.3-0.2-0.4-0.4l0.4,0c-0.5-0.8,0.8-0.3,0.4-1.1l-0.5-0.1c-0.7-0.8,0.8-0.4-0.2-1.2c0.1,0.3-0.8,0.2-0.7-0.3l0.4,0.1
		c-0.1-0.2-0.2-0.3-0.1-0.4c0.2,0.1,0.5,0.1,0.5-0.3l0.4,0.2L37,36.9c0.4-0.5-0.1-1.2,0.4-1.4c0,0,0.3-1-0.3-1.3
		c0.3,0.2,0.5-0.4,0.9-0.2c-0.4-0.3-0.7-1.1-0.3-1.4l0,0.1c0.4-1.2-0.6-2,0-3.1c-0.4,0-0.2-0.5-0.7-0.4c-0.5-1.1,1.1-2-0.6-2.4
		c-0.1-0.5,0.4-0.6,0.5-0.8l0.1,0.1c-0.1-0.9-0.2-1.2-0.1-1.9c-0.2-0.3-1-0.4-0.8-1c0.3,0.2,0.3-0.1,0.3-0.3c0,0.1,0.2,0.2,0.4-0.1
		c-0.1,0-0.2-0.1-0.2-0.2c0,0,0,0,0.1,0c-0.1-0.4-0.2-0.3-0.3-0.1c0,0-0.1,0-0.2,0.1c0.4-0.4,0-1.1,0.5-1.2c-0.1-1.2-0.7-2-0.9-3
		c0.3-0.1,0.5,0.1,0.6,0.4l-0.1-0.7c0.4,0,0.2,0.4,0.3,0.6c0.7-0.8-0.6-1.7,0-2.6L36.3,16l0.1-0.1c-0.2,0-0.4-0.2-0.4-0.4
		c0.4-0.1,0.8,0,0.8-0.5c0.3-0.4-0.2-1.1-0.3-1.6c-0.1,0.3-0.3,0.2-0.4,0.1c0-0.2,0.3-0.4,0.2-0.6l0.5,0c-0.4,0.1-0.5-0.6-0.7-0.7
		c0.4-0.1,0.3,0.4,0.6,0.4c0-0.9,0-0.5-0.1-1.4c-0.4-0.5-0.4,0.1-0.9-0.2c-0.1-0.4-0.4-0.9-0.1-1.4l-0.4,0.2
		c-0.3-0.8-0.3-1.3,0.1-1.8c0.1,0.1,0.2,0.1,0.2,0.1c1.6,1,2.5-0.2,4.4-0.4c1.7,0.3,2.1,1.1,3.9,0.9c0.8,0.1,1.7,0,2.6-0.1
		c0.4-0.6,1.1,0,1.6-0.5l0.2,0.4c0.2-0.2,0.4-0.3,0.5-0.1l0,0.1c0.3-0.3,0.5-0.1,0.6-0.2l0,0.1l0.3,0l-0.1,0.1
		c0.4-0.3,0.9-0.3,1.2-0.1l0-0.4c0.8,0.5,1.1-0.4,1.8,0.3l0,0.1c1-1.1,1.4,0.9,2.4-0.2c-0.1,0.1,0,0.2,0,0.3c0.4-0.1,0.9-0.1,1-1
		c0.3,0,0.2,0.3,0.3,0.6c0-0.4,0.3-0.5,0.6-0.5l-0.1,0.1l0.7-0.1L57,7c0.4,0.2,0.1,0.9,0.4,0.7l0-0.6c0.5,0.1,0.8,1,1.3,1.5
		c2.1,0.4,4.4-1,6.3,0.1l0.1,0.4c0,0.6,0.6-0.9,0.6-0.3l0.2-0.3C66,8.7,66.1,8.8,66,9c0.2,0,0.2-0.1,0.4-0.3l0.2,0.4
		C67.4,9.5,68.1,8.8,69,9c1,0.9,3,0.2,4.2-0.2c1.6-0.9,3.4,1.8,5.1,0.8c0,0.1,0.2-0.1,0.2-0.2l1.5,0.2C79.9,9.6,87.1,10.2,81.9,4.6z
		"/>
	<path fill="#ffffff" d="M73.7,4.3c0.1,0,0.1-0.1,0.1-0.1c0,0,0,0,0.1-0.1C73.9,4.2,73.7,4.2,73.7,4.3z"/>
	<path fill="#ffffff" d="M42.2,38c0-0.1,0-0.2-0.1-0.2L42.2,38z"/>
	<path fill="#ffffff" d="M45.1,43.8L45.1,43.8C45,43.8,45,43.8,45.1,43.8L45.1,43.8z"/>
</g>
</svg>
