<?xml version="1.0" encoding="utf-8"?>
<!-- Generator: Adobe Illustrator 18.1.1, SVG Export Plug-In . SVG Version: 6.00 Build 0)  -->
<svg version="1.1" id="Layer_1" xmlns="http://www.w3.org/2000/svg" xmlns:xlink="http://www.w3.org/1999/xlink" x="0px" y="0px"
	 viewBox="0 0 110 82" enable-background="new 0 0 110 82" xml:space="preserve">
<g>
	<path fill="#202020" d="M34.8,3.9l0.1,0.2C34.9,4,34.9,4,34.8,3.9z"/>
	<path fill="#202020" d="M39.3,10.1L39.3,10.1C39.3,10.2,39.2,10.2,39.3,10.1L39.3,10.1z"/>
	<path fill="#202020" d="M55.6,17l-0.2,0.2C55.5,17.2,55.6,17.1,55.6,17z"/>
	<path fill="#202020" d="M50.1,24L50.1,24C50,24,50,24,50.1,24L50.1,24z"/>
	<polygon fill="#202020" points="58,38.5 58,38.5 58.3,38.6 	"/>
	<path fill="#202020" d="M74.6,77.6l-0.1-0.2C74.5,77.5,74.5,77.6,74.6,77.6z"/>
	<path fill="#202020" d="M69.4,71.6C69.4,71.6,69.4,71.6,69.4,71.6C69.4,71.6,69.4,71.6,69.4,71.6L69.4,71.6z"/>
	<path fill="#202020" d="M81.3,71.8c-1.7-1-2.7,0.2-4.8,0.5c-1.8-0.3-2.3-1.1-4.3-0.8c-0.9-0.1-1.9,0.1-2.8,0.1
		c-0.4,0.6-1.2,0-1.7,0.5l-0.2-0.4c-0.2,0.2-0.4,0.3-0.6,0.1l0-0.1c-0.3,0.3-0.6,0.1-0.7,0.2l0-0.1l-0.3,0l0.1-0.1
		c-0.5,0.3-0.9,0.3-1.3,0.1l0,0.4c-0.9-0.5-1.2,0.4-2-0.2l0-0.1c-1,1.1-1.6-0.8-2.6,0.2c0.1-0.1,0-0.2,0-0.3c-0.5,0.1-1,0.2-1,1
		c-0.3,0-0.3-0.3-0.3-0.6c0,0.4-0.3,0.5-0.6,0.5l0.1-0.1l-0.8,0.1l0.1,0.7c-0.4-0.2-0.1-0.9-0.5-0.7l0,0.6c-0.4-0.1-0.6-0.5-0.9-0.9
		c0-0.1,0.1-0.1,0.1-0.2l0.1,0.1c0.4-1.1,0.5-1.8-0.2-2.6c0.9-0.1,0.1-0.9,0.4-1.2l0.1,0c-0.6-0.7,0.6-1.4,0-2.1
		c0.1,0,0.3,0,0.3,0.2c-0.1-0.5-0.3-1.1,0.2-1.2c-0.1-1.2,0.2-2.8-0.6-3.5l0.1,0.1c-0.5-0.4-0.1-0.5-0.3-1c0.1,0,0.1-0.1,0.1-0.1
		c-0.5-0.5-0.1-1.3-0.3-1.7l0.3,0l-0.1-0.9l-0.1,0.3c-0.9-0.1,0.6-0.7,0-1.3c0.1-0.6-1.9-1.3-1.4-1.9c-0.4-0.3,0.7,0.3,0.4-0.2
		c0.5,0,0.3,0.2,0.7,0.1c-0.2-0.4,0.5-0.7,0.2-1.3l0.4,0c-0.7-0.7,0.5-1.4-0.2-1.8c-0.3-0.7,1.1-0.5,0.4-1.3l0.5-0.3
		c0.1-0.3-0.6-0.2-0.4-0.6c0.3,0,0.3-0.5,0.6-0.3c0.5-0.8-0.7-1.7,0.1-2.8c-0.6-0.2-0.3-0.8-0.7-1c0.3,0,0-1.1,0.6-0.5
		c0,0.1,0,0.1-0.1,0.1l0.4,0.1c0.7-0.6-0.4-1.1-0.3-1.8c-0.1,0.2-0.1,0.4-0.3,0.3l0-0.6l0.3,0.1l0.2-0.9l-0.4,0.1
		c0.2-0.4,0.8-0.6,0.3-1c-0.3-0.2-0.5,0.4-0.6,0c0.3-0.6,0.6-1.4,0.7-2.1c-0.4,0.1-0.4-0.1-0.5-0.3l0.4,0c-0.5-0.7,0.8-0.3,0.4-1
		l-0.5-0.1c-0.8-0.7,0.8-0.4-0.3-1.1c0.1,0.3-0.8,0.2-0.7-0.2l0.4,0.1c-0.1-0.2-0.2-0.3-0.2-0.4c0.2,0.1,0.5,0.1,0.5-0.2l0.5,0.2
		L57,36.2c0.4-0.4-0.1-1.1,0.4-1.3c0,0,0.2-0.9-0.3-1.1c0.4,0.2,0.5-0.3,0.9-0.2c-0.4-0.2-0.7-0.9-0.3-1.2l0,0.1
		c0.4-1.1-0.6-1.8-0.2-2.8c-0.4,0.1-0.2-0.5-0.8-0.3c-0.6-1,1.1-1.8-0.7-2.1c-0.1-0.4,0.4-0.5,0.5-0.8l0.1,0.1
		c-0.2-0.8-0.2-1.1-0.2-1.7c-0.2-0.3-1-0.3-0.8-0.9c0.3,0.2,0.3-0.1,0.2-0.3c0.1,0.1,0.2,0.2,0.4-0.1c-0.1,0-0.2-0.1-0.2-0.1
		c0,0,0,0,0.1,0c-0.1-0.3-0.2-0.3-0.3-0.1c0,0-0.1,0-0.2,0.1c0.4-0.4-0.1-1,0.5-1.1c-0.2-1-0.8-1.8-1-2.6c0.3-0.1,0.5,0.1,0.7,0.3
		l-0.1-0.6c0.4,0,0.3,0.3,0.3,0.5c0.6-0.8-0.7-1.5-0.2-2.4l-0.3-0.2l0-0.1c-0.2,0-0.4-0.2-0.5-0.3c0.3-0.1,0.8,0,0.8-0.5
		c0.3-0.4-0.2-1-0.4-1.4c0,0.2-0.2,0.2-0.4,0.1c0-0.2,0.3-0.4,0.2-0.5l0.5,0C55.1,14.7,55,14,54.8,14c0.3-0.1,0.3,0.3,0.6,0.4
		c-0.1-0.9,0-0.4-0.1-1.3c-0.4-0.4-0.4,0.1-0.9-0.1c-0.1-0.4-0.5-0.8-0.2-1.2l-0.4,0.2c-0.4-0.7-0.4-1.2,0-1.7c0,0-0.1-0.1-0.1-0.1
		c1.4-0.2,2.9-0.6,4.2,0.1l0.1,0.4c0,0.6,0.6-0.9,0.6-0.3l0.2-0.3c0.1,0.1,0.2,0.2,0.1,0.4c0.2,0,0.2-0.1,0.4-0.3l0.2,0.4
		c0.8,0.3,1.5-0.4,2.4-0.3c1,0.8,3,0.1,4.1-0.3c1.6-0.9,3.4,1.6,5,0.5c0.1,0.1,0.2-0.1,0.2-0.2l1.5,0.1c0,0,1.8,0.1,2.9-0.6
		c1.1-0.6,1.5-1.9-1.2-4.5l0-0.1c-0.8-0.3-1.3-0.4-1.9,0.3c-0.1-0.9-0.7-0.1-0.8-0.4l0-0.1c-0.5,0.7-1-0.6-1.5,0
		c0-0.1,0-0.3,0.1-0.3c-0.3,0.1-0.8,0.3-0.8-0.2c-0.8,0.1-2-0.1-2.5,0.7L67,5c-0.3,0.5-0.4,0.1-0.7,0.3c0-0.1,0-0.1,0-0.1
		c-0.3,0.5-1,0.1-1.2,0.3l0-0.3l-0.6,0.1l0.2,0.1c-0.1,0.9-0.5-0.6-1,0c-0.4-0.1-0.9,1.9-1.4,1.4c-0.2,0.4,0.2-0.7-0.1-0.4
		c0-0.5,0.2-0.3,0.1-0.7c-0.3,0.2-0.5-0.5-0.9-0.2l0-0.4c-0.5,0.7-1-0.5-1.3,0.1c-0.5,0.3-0.3-1.1-0.9-0.4l-0.2-0.5
		c-0.2-0.1-0.2,0.6-0.4,0.4c0-0.3-0.3-0.3-0.2-0.6c-0.6-0.5-1.2,0.7-2-0.2c-0.2,0.6-0.6,0.2-0.7,0.7c0-0.3-0.8-0.1-0.3-0.6
		c0,0,0.1,0,0.1,0.1l0.1-0.4C55,3,54.6,4.1,54.2,4c0.1,0.1,0.3,0.1,0.2,0.3l-0.4-0.1L54,3.9l-0.6-0.2l0.1,0.4
		c-0.3-0.2-0.4-0.9-0.7-0.3c-0.2,0.3,0.3,0.5-0.1,0.6c-0.4-0.3-1-0.7-1.5-0.8C51.3,4,51,4,51,4.1V3.7c-1,0.5-0.2-0.8-0.7-0.4L50.3,3
		l-0.2,0.8C49.7,4.5,49.9,3,49.4,4c0.2-0.1,0.1,0.8-0.2,0.7l0.1-0.4C49.1,4.4,49,4.5,49,4.4C49.1,4.2,49,3.9,48.8,4L49,3.5l-0.4,0.6
		c-0.3-0.4-0.8,0.1-0.9-0.5c0,0-0.7-0.3-0.8,0.3c0.2-0.3-0.2-0.5-0.1-0.9c-0.2,0.4-0.7,0.7-0.9,0.2l0,0c-0.7-0.5-1.3,0.5-2,0
		c0,0.4-0.3,0.2-0.3,0.7c-0.7,0.5-1.2-1.2-1.6,0.5c-0.3,0.1-0.4-0.4-0.5-0.5l0.1-0.1C41,4,40.8,4,40.4,3.9c-0.2,0.2-0.3,0.9-0.7,0.7
		c0.1-0.3,0-0.3-0.2-0.3c0.1,0,0.1-0.2,0-0.4c0,0.1-0.1,0.2-0.1,0.2c0,0,0,0,0-0.1c-0.3,0.1-0.2,0.2-0.1,0.2c0,0,0,0.1,0,0.2
		c-0.2-0.4-0.7,0-0.7-0.6c-0.8,0.1-1.3,0.6-2,0.8c-0.1-0.3,0.1-0.5,0.3-0.6l-0.4,0.1c0-0.4,0.3-0.2,0.4-0.3
		c-0.5-0.7-1.1,0.6-1.7-0.1L35,4.2l0-0.1c0,0.2-0.2,0.4-0.3,0.4c-0.1-0.4,0.1-0.8-0.2-0.8c-0.2-0.4-0.7,0.1-1,0.3
		c0.2,0.1,0.1,0.3,0,0.4c-0.2,0-0.2-0.4-0.3-0.2l0-0.5c0,0.4-0.4,0.4-0.5,0.6c-0.1-0.4,0.3-0.3,0.3-0.5c-0.6,0-0.3,0-0.9,0
		c-0.4,0.3,0,0.5-0.2,0.9c-0.3,0.1-0.6,0.4-0.9,0.1L31,5.2c-0.6,0.3-0.9,0.2-1.2-0.3c-4.3,3.1-1.3,4.6-1.3,4.6
		c1.5,1.1,2.5-0.1,4.4-0.3c1.7,0.3,2,1.2,3.8,1c0.8,0.1,1.7,0,2.5-0.1c0.4-0.6,1.1,0.1,1.6-0.4l0.2,0.4c0.2-0.2,0.4-0.3,0.5-0.1
		l0,0.1c0.3-0.3,0.5-0.1,0.6-0.2l0,0.1l0.3,0l-0.1,0.1c0.4-0.3,0.8-0.3,1.2-0.1l0-0.4c0.8,0.5,1.1-0.4,1.8,0.3l0,0.1
		c1-1.1,1.4,0.9,2.4-0.2c-0.1,0.1,0,0.2,0,0.3c0.4-0.1,0.9-0.1,0.9-1c0.3,0,0.2,0.3,0.3,0.6c0-0.1,0.1-0.3,0.1-0.3
		c-0.7,2.2,0.5,3.3,1,5.9c-0.1,2.3-0.9,3-0.4,5.3c0,1.1,0.2,2.4,0.4,3.5c0.7,0.5,0.1,1.5,0.6,2.1l-0.3,0.3c0.2,0.2,0.3,0.5,0.1,0.7
		l-0.1,0c0.3,0.3,0.1,0.7,0.3,0.8l-0.1,0l0.1,0.4l-0.2-0.1c0.3,0.6,0.4,1.1,0.2,1.6l0.4-0.1c-0.4,1.1,0.5,1.5-0.1,2.5l-0.1,0
		c1.2,1.2-0.7,2,0.4,3.2c-0.1-0.2-0.2,0.1-0.3,0.1c0.1,0.6,0.2,1.2,1.1,1.2c0,0.4-0.3,0.4-0.6,0.4c0.4,0,0.5,0.4,0.6,0.7l-0.1-0.2
		l0.1,1l0.7-0.2c-0.2,0.5-0.9,0.1-0.7,0.6l0.6,0c-0.1,0.7-1,1.1-1.4,1.8c-0.2,2.8,1.3,5.9,0.3,8.6l-0.4,0.1c-0.6,0.1,1,0.7,0.4,0.8
		l0.3,0.3c-0.1,0.1-0.2,0.3-0.4,0.1c0,0.3,0.1,0.3,0.3,0.5l-0.4,0.3c-0.3,1.1,0.5,2.1,0.3,3.3c-0.8,1.4-0.1,4.1,0.3,5.6
		c0.9,2.2-1.7,4.7-0.6,6.9c-0.1,0.1,0.1,0.3,0.2,0.3l-0.1,2c0,0-0.1,1.3,0.1,2.5c-0.9,0.1-1.8,0-2.6-0.4l-0.1-0.4
		c0-0.6-0.6,0.9-0.7,0.3l-0.3,0.3c-0.1-0.1-0.2-0.2-0.1-0.4c-0.2,0-0.2,0.1-0.4,0.3l-0.2-0.4c-0.9-0.3-1.7,0.4-2.6,0.2
		c-1.1-0.8-3.3-0.2-4.5,0.2c-1.8,0.9-3.7-1.7-5.5-0.7c-0.1-0.1-0.2,0.1-0.2,0.2l-1.6-0.1c0,0-7.9-0.5-2,5l0,0.1
		c0.9,0.4,1.4,0.5,2.1-0.2c0.1,0.9,0.7,0.1,0.9,0.4l0,0.1c0.6-0.6,1.1,0.6,1.6,0c0,0.1,0,0.3-0.2,0.3c0.4-0.1,0.9-0.3,0.9,0.2
		c0.9-0.1,2.2,0.2,2.8-0.6l0,0.1c0.3-0.5,0.4-0.1,0.8-0.3c0,0.1,0,0.1,0,0.1c0.4-0.5,1.1-0.1,1.4-0.3l0,0.3l0.7-0.1l-0.3-0.1
		c0.1-0.9,0.5,0.6,1.1,0c0.5,0.1,1-1.9,1.5-1.4c0.3-0.4-0.2,0.7,0.1,0.4c0,0.5-0.2,0.3-0.1,0.7c0.4-0.2,0.6,0.5,1,0.2l0,0.4
		c0.6-0.7,1.1,0.5,1.5-0.1c0.6-0.3,0.4,1.1,1,0.4l0.2,0.5c0.3,0.1,0.2-0.6,0.5-0.4c0,0.3,0.4,0.3,0.2,0.6c0.6,0.5,1.4-0.7,2.2,0.2
		c0.2-0.6,0.6-0.2,0.8-0.7c0,0.3,0.9,0.1,0.4,0.6c0,0-0.1,0-0.1-0.1l-0.1,0.4c0.5,0.7,0.9-0.4,1.4-0.2c-0.1-0.1-0.3-0.1-0.2-0.3
		l0.5,0.1l-0.1,0.3l0.7,0.2l-0.1-0.4c0.3,0.2,0.4,0.9,0.8,0.3c0.2-0.3-0.3-0.5,0.1-0.6c0.4,0.3,1.1,0.7,1.7,0.8
		c0-0.4,0.1-0.4,0.3-0.5l0,0.4c0.6-0.5,0.2,0.8,0.8,0.4l0.1-0.5c0.6-0.7,0.3,0.8,0.9-0.2c-0.2,0.1-0.1-0.8,0.2-0.7l-0.1,0.4
		c0.2-0.1,0.2-0.2,0.3-0.1c-0.1,0.2-0.1,0.5,0.2,0.5l-0.2,0.4l0.5-0.7c0.3,0.4,0.9-0.1,1,0.4c0,0,0.7,0.3,0.9-0.3
		c-0.2,0.3,0.2,0.5,0.1,0.9c0.2-0.4,0.8-0.7,1-0.3l0,0c0.8,0.4,1.5-0.5,2.2,0c0-0.4,0.4-0.2,0.3-0.7c0.8-0.5,1.4,1.2,1.7-0.5
		c0.4-0.1,0.4,0.4,0.6,0.5l-0.1,0.1c0.7-0.1,0.9-0.1,1.4-0.1c0.3-0.2,0.3-1,0.8-0.7c-0.2,0.3,0,0.3,0.2,0.3c-0.1,0-0.1,0.2,0.1,0.4
		c0-0.1,0.1-0.2,0.1-0.2c0,0,0,0,0,0.1c0.3-0.1,0.2-0.2,0.1-0.3c0,0,0-0.1,0-0.2c0.3,0.4,0.8,0,0.8,0.5c0.8-0.1,1.5-0.6,2.2-0.8
		c0.1,0.3-0.1,0.5-0.3,0.6l0.5-0.1c0,0.4-0.3,0.2-0.4,0.3c0.6,0.7,1.2-0.6,1.9,0l0.2-0.3l0,0.1c0-0.2,0.2-0.4,0.3-0.4
		c0.1,0.4,0,0.8,0.3,0.8c0.3,0.3,0.8-0.1,1.1-0.3c-0.2-0.1-0.1-0.3,0-0.4c0.2,0,0.3,0.3,0.4,0.2l0,0.5c-0.1-0.4,0.5-0.5,0.5-0.7
		c0.1,0.4-0.3,0.3-0.3,0.6c0.7,0,0.3,0,1,0c0.4-0.3-0.1-0.4,0.1-0.9c0.3-0.1,0.6-0.4,1-0.1l-0.1-0.4c0.6-0.3,1-0.3,1.4,0.2
		C84.8,73.1,81.3,71.8,81.3,71.8z"/>
	<polygon fill="#202020" points="57.4,78.7 57.4,78.7 57.3,79 	"/>
</g>
</svg>
