<?xml version="1.0" encoding="utf-8"?>
<!-- Generator: Adobe Illustrator 18.1.1, SVG Export Plug-In . SVG Version: 6.00 Build 0)  -->
<svg version="1.1" id="Layer_1" xmlns="http://www.w3.org/2000/svg" xmlns:xlink="http://www.w3.org/1999/xlink" x="0px" y="0px"
	 viewBox="0 0 220 10" enable-background="new 0 0 220 10" xml:space="preserve">
<g>
	<path fill="#FFFFFF" d="M6.1,9.3L3.1,4v5.3H1.4V0.7h1.8L6,5.8V0.7h1.7v8.7H6.1z"/>
	<path fill="#FFFFFF" d="M10.9,5c0-2.6,1.4-4.5,3.6-4.5c2.3,0,3.6,1.9,3.6,4.5s-1.4,4.5-3.6,4.5C12.2,9.5,10.9,7.6,10.9,5z M16.4,5
		c0-1.7-0.7-2.9-1.8-2.9c-1.2,0-1.9,1.3-1.9,2.9c0,1.7,0.7,2.9,1.9,2.9C15.7,7.9,16.4,6.7,16.4,5z"/>
	<path fill="#FFFFFF" d="M26.5,9.3l-1.1-5.8l-1.1,5.8h-1.8l-2-8.7h1.9l1.1,6l1.3-6h1.4l1.2,6l1.1-6h1.9l-2,8.7H26.5z"/>
	<path fill="#FFFFFF" d="M42.4,9.3L42,7.8h-2.7l-0.4,1.5H37l2.6-8.7h2.1l2.6,8.7H42.4z M40.6,2.5l-1,3.8h2L40.6,2.5z"/>
	<path fill="#FFFFFF" d="M57.9,9.3V3.5l-2,5.8h-0.7l-2-5.8v5.8h-1.7V0.7h2.3l1.7,5.1l1.7-5.1h2.3v8.7H57.9z"/>
	<path fill="#FFFFFF" d="M67.7,9.3l-0.4-1.5h-2.7l-0.4,1.5h-1.9L65,0.7H67l2.6,8.7H67.7z M66,2.5l-1,3.8h2L66,2.5z"/>
	<path fill="#FFFFFF" d="M71.8,8.8l0.6-1.4c0.3,0.3,0.6,0.5,1.1,0.5c0.7,0,1.1-0.4,1.1-1.2V0.7h1.7v6.1c0,1.8-1.1,2.7-2.7,2.7
		C73,9.5,72.3,9.3,71.8,8.8z"/>
	<path fill="#FFFFFF" d="M79.6,5c0-2.6,1.4-4.5,3.6-4.5c2.3,0,3.6,1.9,3.6,4.5s-1.4,4.5-3.6,4.5C80.9,9.5,79.6,7.6,79.6,5z M85,5
		c0-1.7-0.7-2.9-1.8-2.9c-1.2,0-1.9,1.3-1.9,2.9c0,1.7,0.7,2.9,1.9,2.9C84.4,7.9,85,6.7,85,5z"/>
	<path fill="#FFFFFF" d="M94,9.3l-1.3-3.1h-0.9v3.1H90V0.7h3.2c1.6,0,2.7,1.1,2.7,2.7c0,1.5-0.8,2.2-1.5,2.5l1.6,3.4H94z M94.1,3.4
		c0-0.8-0.5-1.2-1.1-1.2h-1.2v2.5H93C93.6,4.7,94.1,4.2,94.1,3.4z"/>
	<path fill="#FFFFFF" d="M110.1,9.3V3.5l-2,5.8h-0.7l-1.9-5.8v5.8h-1.7V0.7h2.3l1.7,5.1l1.7-5.1h2.3v8.7H110.1z"/>
	<path fill="#FFFFFF" d="M115,5c0-2.6,1.4-4.5,3.6-4.5c2.3,0,3.6,1.9,3.6,4.5s-1.4,4.5-3.6,4.5C116.3,9.5,115,7.6,115,5z M120.5,5
		c0-1.7-0.7-2.9-1.8-2.9c-1.2,0-1.9,1.3-1.9,2.9c0,1.7,0.7,2.9,1.9,2.9C119.8,7.9,120.5,6.7,120.5,5z"/>
	<path fill="#FFFFFF" d="M126.6,9.3V2.2h-1.9V0.7h5.6v1.5h-1.9v7.1H126.6z"/>
	<path fill="#FFFFFF" d="M133.3,9.3V0.7h1.7v8.7H133.3z"/>
	<path fill="#FFFFFF" d="M138.2,5c0-2.6,1.4-4.5,3.6-4.5c2.3,0,3.6,1.9,3.6,4.5s-1.4,4.5-3.6,4.5C139.5,9.5,138.2,7.6,138.2,5z
		 M143.7,5c0-1.7-0.7-2.9-1.8-2.9c-1.2,0-1.9,1.3-1.9,2.9c0,1.7,0.7,2.9,1.9,2.9C143,7.9,143.7,6.7,143.7,5z"/>
	<path fill="#FFFFFF" d="M153.3,9.3l-3-5.3v5.3h-1.7V0.7h1.8l2.9,5.1V0.7h1.7v8.7H153.3z"/>
	<path fill="#FFFFFF" d="M163.1,9.3V0.7h3.2c1.8,0,2.7,1.3,2.7,2.8c0,1.5-0.9,2.8-2.7,2.8h-1.5v3.1H163.1z M167.3,3.4
		c0-0.8-0.5-1.2-1.1-1.2h-1.2v2.5h1.2C166.8,4.7,167.3,4.2,167.3,3.4z"/>
	<path fill="#FFFFFF" d="M172,9.3V0.7h1.7v8.7H172z"/>
	<path fill="#FFFFFF" d="M176.9,5c0-2.6,1.4-4.5,3.7-4.5c1.7,0,2.5,1.1,2.9,2.1l-1.4,0.6c-0.3-0.7-0.8-1.2-1.5-1.2
		c-1.2,0-1.9,1.2-1.9,2.9c0,1.7,0.7,2.9,1.9,2.9c0.7,0,1.2-0.5,1.5-1.3l1.4,0.6c-0.4,1-1.2,2.2-2.9,2.2C178.3,9.5,176.9,7.6,176.9,5
		z"/>
	<path fill="#FFFFFF" d="M187.9,9.3V2.2H186V0.7h5.6v1.5h-1.9v7.1H187.9z"/>
	<path fill="#FFFFFF" d="M194.6,6.3V0.7h1.8v5.7c0,1,0.5,1.6,1.4,1.6s1.5-0.6,1.5-1.6V0.7h1.8v5.7c0,2-1.2,3.2-3.2,3.2
		C195.9,9.5,194.6,8.3,194.6,6.3z"/>
	<path fill="#FFFFFF" d="M208.6,9.3l-1.3-3.1h-0.9v3.1h-1.7V0.7h3.2c1.6,0,2.7,1.1,2.7,2.7c0,1.5-0.8,2.2-1.5,2.5l1.6,3.4H208.6z
		 M208.6,3.4c0-0.8-0.5-1.2-1.1-1.2h-1.2v2.5h1.2C208.2,4.7,208.6,4.2,208.6,3.4z"/>
	<path fill="#FFFFFF" d="M213.7,9.3V0.7h5v1.5h-3.2v2h3.1v1.5h-3.1v2.1h3.2v1.5H213.7z"/>
</g>
</svg>
