<?xml version="1.0" encoding="utf-8"?>
<!-- Generator: Adobe Illustrator 18.1.1, SVG Export Plug-In . SVG Version: 6.00 Build 0)  -->
<svg version="1.1" id="Layer_1" xmlns="http://www.w3.org/2000/svg" xmlns:xlink="http://www.w3.org/1999/xlink" x="0px" y="0px"
	 viewBox="0 0 110 82" enable-background="new 0 0 110 82" xml:space="preserve">
<g>
	<path fill="#202020" d="M23.7,11.9l1.2-0.4C24.9,11.5,24.5,11.5,23.7,11.9z"/>
	<path fill="#202020" d="M85.3,77L85.3,77L85.3,77l0.1-0.1c0,0,0-0.1,0-0.2c0-0.1,0-0.2,0-0.2C85.3,76.6,85.4,76.7,85.3,77z"/>
	<polygon fill="#202020" points="42.7,25 42.7,25 42.8,24.5 	"/>
	<path fill="#202020" d="M85.1,77.4L85.1,77.4c0.1,0,0.1-0.1,0.2-0.1c0.1-0.1,0.1-0.2,0-0.3c0,0,0,0,0,0L85.1,77.4L85.1,77.4z"/>
	<path fill="#202020" d="M102.7,21.6c0.1,0.2,0.3,0.2,0.5,1c-0.3-1.7-0.8-3.5-1.2-5.1c-0.4-1.6-0.9-2.9-0.7-3.1
		c-0.2-0.5-0.4-1-0.6-1.5c-0.1-0.3-0.2-0.5-0.3-0.8c-0.1-0.3-0.3-0.7-0.5-1c-0.7-1.3-1.7-2.4-2.9-3.3c-1.2-0.9-2.7-1.7-4.3-2
		c-0.8-0.2-1.6-0.2-2.5-0.1c-0.8,0.1-1.6,0.2-2.4,0.5c-1.6,0.6-2.9,1.7-3.7,2.6c-0.4,0.5-0.7,0.9-1.1,1.3c-0.3,0.4-0.6,0.8-0.9,1.2
		c-1.2,1.5-2.1,2.9-2.7,4.1l0.1-0.4c-0.7,1.4-1.3,2.2-1.9,3c-0.3-0.9-0.6-1.8-1-2.7c0.2,0.7,0.5,1.5,0.6,2c0.1,0.5,0.1,0.7-0.2,0.1
		c0,0-0.1-0.3-0.2-0.7c-0.1-0.4-0.3-0.9-0.5-1.4c-0.2-0.5-0.5-1-0.7-1.4c-0.2-0.4-0.3-0.6-0.3-0.6l0.7,0.7c0,0-0.2-0.4-0.5-1
		c-0.2-0.6-0.7-1.3-1.2-2c-0.1-0.2-0.2-0.4-0.3-0.5c-0.1-0.1-0.1-0.2-0.2-0.3c-0.1-0.1-0.2-0.2-0.3-0.4c-0.4-0.5-0.7-0.9-1-1.3
		c-0.6-0.8-1-1.3-1-1.3l0.7,1.4c-0.4-0.5-0.7-0.9-1-1.4c0,0-0.1-0.1-0.1-0.1l-0.2,0c-0.1,0-0.3,0-0.4,0c-0.3,0-0.5-0.1-0.7-0.1
		c-0.5-0.1-1-0.1-1.4-0.2c-0.2,0-0.5,0-0.7,0l-0.6,0c-1.2,0-2.6,0.1-4.4,1c-1.6,0.8,3.2-0.4-0.2,0.7c-1.1,0.3-2.3,0.7-3.5,1.3
		c-1.2,0.6-2.4,1.3-3.6,2.2c-1.2,0.8-2.3,1.8-3.3,2.8c-0.5,0.5-1,1-1.4,1.5c-0.4,0.5-0.9,0.9-1.3,1.4c-0.1-0.4-0.2-0.8-0.3-1.2
		c-0.5-1.7-1.3-3.3-2.6-4.6c-1.2-1.3-2.9-2.1-4.5-2.6C41.4,9,41.7,8.9,42.2,9c0.6,0.1,1.5,0.4,2.5,0.9c0,0-0.3-0.2-0.7-0.4
		c-0.5-0.2-1.1-0.5-1.7-0.7c-1.2-0.4-2.5-0.5-2.5-0.5c0-0.2,0.8-0.2,1.7,0.1c0.5,0.1,1,0.3,1.4,0.5c0.5,0.2,0.9,0.4,1.3,0.6
		c-2.8-1.9-6.2-2-9.2-1.4c-3,0.6-5.8,1.7-8.8,2.6l-1.1,0.8l-0.4,0.1c0.1,0.1-1.1,1-1.9,1.4c-0.9,0.1-0.3-0.7-3,0.8c0,0,0-0.1,0-0.1
		c-0.9-1.8-1.8-3.1-2.7-4.3c-1.7-2.3-3.1-3.8-4.1-4.7c-1.9-1.8-2.2-1.4-1.8,0c0.5,1.4,1.7,3.7,2.6,5.6c0.9,1.9,1.5,3.5,1.5,3.5
		c0.3,0.9,0.6,1.7,0.8,2.5c-0.2,0.1-0.3,0.3-0.5,0.4c-1.4,1.3-2.7,2.8-3.7,4.1c0.6-0.7,0.8-0.8,0.9-0.8c0,0.1-0.1,0.3-0.3,0.7
		c-0.5,0.6-1,1-1.4,1.5c-0.4,0.4-0.7,0.9-1,1.4l-0.4-0.1c0.1,0.2-0.3,1-0.7,1.9c-0.5,1.1-0.9,2.4-0.9,2.8c-0.3,0.4-0.2-0.3,0-1
		c0.3-0.8,0.6-1.7,0.6-1.9c-0.4,0.7-0.6,1.4-0.8,1.9c-0.2,0.5-0.3,1-0.4,1.3c-0.1,0.4-0.2,0.6-0.3,0.9c0,0.2-0.1,0.5-0.1,0.7
		c-0.1,0.8-0.5,1.7-0.3,5.1c0,0.2,0,0.3,0.1,0.3L8.2,38l1.8-1c2.4-1.4-1-0.1,0.3-1c0.9-0.4,1.7-0.9,2.5-1.4l0,0c0,0,0,0,0,0
		c1.7-1,3.3-2.3,5-3.8c0,0-0.3,0.1-0.5,0.2c-0.3,0.1-0.5,0.2-0.5,0.2c1.9-2,2.9-3.9,3.7-5.7c0.7-1.8,1.2-3.5,1.4-5.4
		c0-0.2-0.1-0.4-0.1-0.7c0.3-0.2,0.5-0.3,0.8-0.5c2.3-1.3,4.5-2.3,6.7-3.1c2.3-0.7,4.6-1.5,7-1.7c2.3-0.2,4.8,0.2,6,1.6
		c0.6,0.8,0.9,2,1,3.6c0,1.5,0,3.2-0.1,4.8c-0.2,0.2-0.4,0.5-0.6,0.8l-0.2,1.1c-1.2,2.1-1.7,2.6-2.2,3c-0.6,0.5-1.1,1.1-2.2,3.5
		c1.2-1.8,1.2-0.4-0.3,1.7l0.1-0.7c-0.7,1.2-0.9,1.7-1.4,2.5c0.3-0.8-0.2-0.7-1.3,1.2l0.4-1.5c0,0-0.4,0.9-0.8,1.9
		c-0.4,0.9-0.8,1.9-0.8,1.9c-1.9,2.5-3.8,7-4.8,8c0,0-0.2,0.4-0.5,0.9c-0.3,0.6-0.7,1.4-1.1,2.2c-0.8,1.7-1.5,3.6-1.5,4.4
		c0.2-1.4-1.3,2-1.3,0.9c-0.2,0.9-0.6,2.5-1.1,4.2c-0.3,0.8-0.5,1.7-0.8,2.4c-0.1,0.4-0.3,0.7-0.4,1c0,0.1-0.1,0.2-0.1,0.2l-0.1,0.1
		c0,0.1-0.1,0.1-0.2,0.2c0,0,0-0.3,0-0.2c-0.5,1.1-1.1,2.1-1.6,3.1c-0.7,1.5-1.4,2.9-1.8,4.2c-0.4,1.3-0.5,2.4-0.5,3.3
		c0,0.9,0.2,1.6,0.6,2.3c0.2,0.4,0.4,0.7,0.7,1.1c0.3,0.4,0.7,0.7,1.2,0.9c0.9,0.5,1.8,0.7,2.7,0.7c1,0,2-0.1,3-0.3l0.7-0.2l0.7-0.3
		c0.5-0.1,1-0.4,1.5-0.7c-0.1-0.1,0.1-0.3,0.4-0.5c0.3-0.3,0.8-0.8,1.2-1.2c0.4-0.4,0.8-0.9,1-1.2c0.2-0.3,0.2-0.5-0.1-0.3
		c0.9-1.1,1.6-2.2,2.3-3.1c0.5-0.7,0.9-1.4,1.4-2.1c0.9-1.3,1.7-2.6,2.3-3.8c1.3-2.3,2.2-4.2,1.9-5.7c1.2-3,1.8-3.3,2.5-4.8
		l-0.2,0.7c1-2.8,1.6-4.6,2.1-6.3c0.5-1.6,1-3.1,1.6-5.2c0.4-2.2-0.2-2.7,0.9-6.5c0,1.3,0.3-0.3,0.6-1.7c-0.2,0.9-0.1,1.2,0.5-0.6
		c0-0.3,0-0.7,0-1.1c0,0,0.1-0.1,0.1,0c0.3-2.5,0.2-2-0.1-0.9c0-0.1-0.1,0-0.3,0.3c0.9-2.4,1.1-7.1,1.6-7.3c0.1-0.5,0.1-1.1,0.1-1.6
		c1.3-1.5,2.6-2.6,3.8-3.7c0.7-0.6,1.5-1.2,2.3-1.9c0.8-0.6,1.5-1.2,2.4-1.9c1.7-1.5,3.5-2.7,5.4-3.5c1-0.4,2-0.7,3-0.9l0.8-0.1
		l0.4,0l0.1,0c0.1,0,0.2,0,0.3,0c0.1,0,0.2-0.1,0.3,0.1l0.5,0.5c0,0,0.3,0.4,0.4,0.6l0.5,0.7c0.3,0.4,0.6,0.9,0.9,1.4l0.4,0.7
		c0.1,0.2,0.2,0.5,0.3,0.8c0.9,2,1.4,4.3,1.6,6.6c0,0.2,0,0.4,0,0.6c-1.5,2.3-3.2,4.7-3.9,6.1l-0.4,0c0,0-0.8,1.4-1.6,2.7
		c-0.8,1.4-1.6,2.7-1.6,2.7l1.3-2c0.4,1.2-3,3.8-4.7,8.2c-2.2,3.8-2.4,8.6-4.6,12.5c-0.4,2.1,0.1-2-0.9,1.1
		c-0.5-0.1,0.3-1.5-0.4-0.9c-0.5,1.5-1.1,2.7-1.7,4c-0.6,1.3-1.2,2.7-1.4,4.8l-0.4,0.1c0,0.5-0.1,0.9-0.1,1.4l0,0.7
		c0,0.3,0,0.6,0,0.9c0,1.2,0.1,2.3,0.5,3.3c0.4,1,1.1,1.9,2,2.4c0.9,0.5,1.9,0.6,2.9,0.6c0.5,0,1-0.1,1.5-0.2c0.5,0,1-0.2,1.4-0.3
		c0.7-0.3,1.4-0.6,2-1.1c1.3-0.9,2.1-1.5,2.7-2c0.6-0.5,1-0.8,1.4-1.2c0.4-0.3,0.8-0.7,1.2-1.4c0.4-0.6,0.9-1.6,1.3-3
		c0,0,0.3-0.5,0.7-1c0.3-0.5,0.6-1,0.6-1c0.9-2.3,0-1.9,1-4.3c0.3,0.2,1.1-3.2,1-1.6c1-2.8,1.3-5.8,1.9-8.8c0.5-2.9,1.6-6.2,2.8-9.9
		c-0.1-0.9,0.1-2.3,0.3-3.7c0.2-1.4,0.4-2.7,0.2-3.4c0.2-0.1,0.4-2.1,0.4-3.6c0.1-1.5,0.1-2.3,0.4,0c0,0.4,0,1.1-0.1,1.1l0.3,0.6
		c0.4-1.8,0.4-3.5,0.2-5.1c1.6-2.4,3.3-4.7,5.2-7c0.6-0.8,1.3-1.5,1.9-2.3l1-1.1c0.3-0.4,0.7-0.7,1-1c0.6-0.5,1.1-0.8,1.6-1
		c0.3-0.1,0.6-0.1,0.9-0.1c0.3,0,0.6,0,0.9,0.1c1.1,0.3,2.3,1.2,3,2.4c0.2,0.3,0.3,0.5,0.4,0.9l0.5,1.3c0.3,0.9,0.6,1.8,0.8,2.7
		c1,3.6,1.5,7.2,1.8,10.9c-0.1,0.5,0.1,1.7,0.2,1.7c0,0-0.1,3.4-0.8,6.7c-0.6,3.4-1.5,6.7-1.5,6.7s-1,4-2.8,9.3
		c-1.8,5.2-4.3,11.7-6.2,16.6c-0.5,1.2-0.9,2.4-1.2,3.4c-0.2,0.5-0.3,1-0.5,1.4c0,0.1,0,0,0,0.1c0.2,0.1,0.3,0.2,0.3,0.3
		c0,0,0.1,0.1,0.1,0.1c0,0.2,0.1,0.3,0.2,0.5l0,0c0,0.1-0.2,0.1-0.1,0.2c0,0.2-0.3,0.2-0.3,0.2c0,0-0.3,0-0.3,0c0,0,0,0,0,0
		c0,0,0.2,0,0.2,0c0,0,0.1,0,0.1,0c0,0.1,0.2,0.1,0.4,0.2c0.4,0.1,0.9-0.2,1.3-0.8c0.3-0.5,0.6-1.1,1-1.7c1.7-2.7,4-6.7,7-12.5v0.4
		c4-7.2,5-12,5.7-17.5c0.5-0.3,1-1.9,1.3-3.7c0.3-1.8,0.5-3.7,0.8-4.6l0.1,0.2c0-2.5,0.3-5,0.5-7.6
		C103.4,26.5,103.4,23.9,102.7,21.6z M15.7,24.8c0.1-0.1,0.2-0.2,0.3-0.3c-0.4,0.9-1,1.8-1.8,2.7C14.6,26.4,15.1,25.6,15.7,24.8z
		 M49.3,18c0-0.1,0-0.2-0.1-0.4C49.4,17.7,49.4,17.8,49.3,18z M38.2,50.3c0,0-0.2,0.4-0.4,0.7c-0.2,0.4-0.5,0.7-0.5,0.7
		c-0.3,1.4-0.8,3.1-1.6,4.4L35.6,56c-0.6,2.1-1.7,4.3-2.1,5.3l-0.1-0.1c0,0-0.3,0.6-0.6,1.2c-0.3,0.6-0.6,1.2-0.6,1.2l0.1-0.5
		c-0.7,1.7-1.6,3.4-2.6,4.9l-0.3,0.5l-0.1,0.2l-0.1,0.2l-0.1,0.1c-0.1,0.1-0.3,0.3-0.4,0.3c0,0,0,0.1,0,0.3c0,0.1,0.1,0.3,0.1,0.3
		c-0.4,0.2-0.8,0.3-1.2,0.4c-0.2,0-0.4,0.1-0.6,0.1c-0.2,0-0.4-0.2-0.4-0.3c-0.1-0.3,0-0.6,0.2-1c0.2-0.4,0.5-0.8,0.8-1.2l0.1,0.1
		c-0.1,0,0.2-0.7,0.4-1.3c0.1-0.3,0.2-0.7,0.3-0.9c0.1-0.2,0.1-0.5,0.2-0.7c0.3-0.9,0.5-1.8,0.8-2.7c0.3-0.8,0.6-1.7,1-2.4
		c0.4-0.8,0.7-1.5,1.1-2.3c1.5-3.1,3.1-6.1,4.6-10.2c-0.4,1,0.4-0.3,0.5-0.2c0.9-1.8,1.9-3.6,2.6-5.1c0.7-1.4,1.1-2.5,0.7-2.7
		c1.1-1.7,1.4-1.9,1.6-2C41.1,41.1,39,46.5,38.2,50.3z M71,38.6c-0.6,2.3-1.4,4.6-2,7.1c-0.6,2.4-1.2,4.7-1.8,6.9l-0.6,0.7
		c-0.4,0.1-0.4,1.4-0.5,2.7c-0.1,1.3-0.2,2.6-0.6,2.8c0,0-0.1,0.5-0.2,1c-0.1,0.5-0.2,1-0.2,1c-0.3,0.5-0.9,1.5-0.6,0.6
		c-0.7,1.6-0.6,1.7-1.1,2.9c0,0-0.1,0.1-0.2,0.2c-0.1,0.1-0.3,0.3-0.4,0.4c-0.3,0.3-0.7,0.6-0.7,0.6c-0.7,0.8-1.4,1.4-2.2,1.9
		c-0.4,0.2-0.8,0.4-1.2,0.5c-0.3,0.1-0.2,0.1-0.3,0.1c-0.1,0-0.2,0-0.2,0.1C58,68,57.6,68,57.4,67.8c-0.2-0.3-0.2-0.6-0.2-1
		c0.1-2,0.8-4.3,1.7-6.7c2-4.3,5.1-10.6,8.5-16.9c1.4-2.7,2.9-5.4,4.4-7.9C71.6,36.4,71.3,37.5,71,38.6z"/>
	<path fill="#202020" d="M103.1,22.5c0,0.1,0.1,0.3,0.1,0.4C103.2,22.8,103.2,22.6,103.1,22.5z"/>
	<path fill="#202020" d="M10,23.4l0.1,0C10.1,23.4,10,23.4,10,23.4z"/>
</g>
</svg>
