<?xml version="1.0" encoding="utf-8"?>
<!-- Generator: Adobe Illustrator 18.1.1, SVG Export Plug-In . SVG Version: 6.00 Build 0)  -->
<svg version="1.1" id="Layer_1" xmlns="http://www.w3.org/2000/svg" xmlns:xlink="http://www.w3.org/1999/xlink" x="0px" y="0px"
	 viewBox="0 0 110 82" enable-background="new 0 0 110 82" xml:space="preserve">
<g>
	<path fill="#202020" d="M37,13.7l-0.2,0.2C36.9,13.9,37,13.9,37,13.7z"/>
	<path fill="#202020" d="M31.2,21.7L31.2,21.7C31.2,21.7,31.2,21.7,31.2,21.7L31.2,21.7z"/>
	<path fill="#202020" d="M46.1,7.9C46.1,7.9,46.1,7.9,46.1,7.9C46.1,7.9,46.1,7.9,46.1,7.9L46.1,7.9z"/>
	<polygon fill="#202020" points="74.7,11.1 74.7,11.1 75,11.1 	"/>
	<path fill="#202020" d="M43.6,36.2l0.2,0.2C43.8,36.3,43.7,36.2,43.6,36.2z"/>
	<path fill="#202020" d="M49.1,44.2L49.1,44.2C49,44.2,49,44.2,49.1,44.2L49.1,44.2z"/>
	<path fill="#202020" d="M97.3,75.3c-0.5-0.6-1.8-0.9-4-1.8l0-0.1c-1.2-0.1-1.8-0.1-2.6,0.6c-0.1-0.9-0.9-0.1-1.2-0.4l0-0.1
		c-0.8,0.6-1.4-0.7-2.1-0.2c0-0.1,0.1-0.3,0.3-0.3c-0.5,0-1.2,0-1.1-0.5c-1.2-0.1-2.6-1-3.7-0.6l0.1-0.1c-0.6,0.3-0.6-0.2-1.1-0.2
		c0-0.1,0-0.1,0-0.1c-0.7,0.2-1.3-0.7-1.7-0.7l0.2-0.3L79.5,70l0.3,0.3c-0.6,0.7-0.3-0.9-1.2-0.9c-0.4-0.5-2.3,0.5-2.6-0.3
		c-0.6,0.1,0.7-0.3,0.1-0.4c0.3-0.4,0.4-0.1,0.5-0.4c-0.5-0.2-0.3-0.9-0.9-1.1l0.2-0.3c-1.1-0.1-0.7-1.4-1.5-1.4
		c-0.8-0.4,0.5-1.1-0.7-1.3l0.2-0.6c-0.2-0.3-0.6,0.2-0.7-0.3c0.3-0.2-0.1-0.6,0.3-0.6c-0.2-1-1.7-1.1-1.8-2.6
		c-0.7,0.1-0.7-0.6-1.2-0.5c0.2-0.2-0.7-1.1,0.2-0.8c0.1,0,0.1,0.1,0,0.2l0.4-0.1c0.2-1-1.1-0.9-1.4-1.5c0,0.2,0.2,0.5-0.1,0.5
		L69.1,57l0.3-0.1L69,56l-0.2,0.3c-0.1-0.5,0.3-1-0.4-1.2c-0.4,0-0.2,0.7-0.6,0.3c-0.2-0.7-0.4-1.8-0.8-2.5c-0.3,0.3-0.4,0.1-0.6,0
		l0.3-0.2c-1-0.5,0.5-0.7-0.4-1.3l-0.5,0.2c-1.1-0.3,0.4-0.8-1-1c0.3,0.3-0.6,0.6-0.7,0.2l0.4-0.1c-0.2-0.2-0.4-0.1-0.4-0.3
		c0.2,0,0.5-0.2,0.2-0.5l0.5-0.1l-1-0.2c0-0.7-0.9-1.1-0.7-1.5c0,0-0.5-1.1-1.1-0.9c0.1,0,0.2-0.1,0.2-0.2c0.1-0.1,0.3-0.2,0.5-0.3
		c0.4-0.2,0.8-0.4,0.8-0.4l-0.6,0.2c-0.2-0.9,1.4-0.1,2.3-1.2c1.1-0.5,1.1-2.8,2.4-3.1c0.3-0.7-0.1,0.9,0.5,0.1
		c0.3,0.4-0.2,0.5,0.2,0.7c0.6-0.7,1.6-0.4,2.3-1.4l0.3,0.3c0.4-0.7,1-1.2,1.5-1.6c0.5-0.4,1-0.8,1.1-1.4c0.3-0.7,0.7-0.8,1.1-0.9
		c0.3-0.1,0.7-0.3,0.8-1.2l0.8-0.3c0.4-0.6-0.3-0.7,0.2-1.3c0.3,0.2,0.6-0.8,0.7-0.3c0.6-0.7,0.7-1.7,0.9-2.7c0.2-1,0.3-2,0.9-3.1
		c-0.5-0.6,0-1.7-0.5-2.1c0.1,0,0.2-0.6,0.2-1c0.1-0.4,0.1-0.7,0.4,0c0,0.1,0,0.3-0.1,0.3l0.4,0.2c0.7-1.4-0.4-2.5-0.5-3.9
		c-0.1,0.4,0,0.9-0.3,0.6c0,0,0-0.3-0.1-0.6c0-0.3-0.1-0.6-0.1-0.6l0.3,0.2c0,0,0-0.5-0.1-0.9c0-0.5-0.1-0.9-0.1-0.9l-0.3,0.3
		c0-0.9,0.5-1.4-0.3-2.2c-0.4-0.3-0.2,1-0.6,0.1c-0.1-1.2-0.4-3-1.1-4.5c-0.3,0.3-0.5,0-0.8-0.4l0.3-0.2c-1.3-1.1,0.4-1-0.9-2.1
		l-0.6,0.1c-1.5-0.7,0.1-1.2-1.9-1.7c0.5,0.4-0.4,0.8-0.8,0.1l0.4-0.1c-0.4-0.3-0.6-0.3-0.8-0.5c0.3,0,0.5-0.3-0.1-0.7l0.7,0
		c0,0-0.4-0.1-0.7-0.2c-0.4-0.1-0.7-0.1-0.7-0.1c-0.3-0.5-0.8-0.7-1.3-1c-0.5-0.2-0.8-0.5-0.9-0.8c0,0-0.4-0.3-0.9-0.5
		c-0.5-0.3-1.1-0.4-1.4-0.2c0.5-0.2-0.4-0.7,0-1c-0.6,0.2-2.1-0.2-2.5-0.7l0.1,0c-1-0.6-1.9-0.7-2.8-0.9c-0.9-0.1-1.8-0.2-2.7-0.7
		c0,0.4-1,0-0.8,0.6c-1,0.1-1.8-0.3-2.6-0.6c-0.7-0.3-1.3-0.4-1.8,0.5c-0.9,0-1-0.5-1.4-0.6l0.2-0.1c-0.8,0-1.4,0-1.9-0.1
		c-0.5,0-0.9,0-1.5-0.1c-0.6,0.1-0.7,0.9-1.8,0.7c0.4-0.3-0.1-0.3-0.5-0.3C46,2.1,46.1,2,45.6,1.8c-0.1,0.1-0.2,0.2-0.3,0.2
		c0,0,0,0,0-0.1C44.6,2,44.7,2.1,45,2.2c0,0,0,0.1,0.1,0.2c-0.7-0.4-2,0.1-2.1-0.5c-1,0.1-1.9,0.4-2.7,0.6C39.5,2.7,38.8,3,38,3.2
		c-0.2-0.3,0.1-0.5,0.6-0.7l-1.2,0.2c0-0.4,0.7-0.3,1-0.4c-1.5-0.5-2.9,1-4.6,0.7l-0.3,0.3c-1-1-1.7-1-2.1-0.6
		c-0.2,0.2-0.4,0.4-0.6,0.7c-0.5,0.2-1.1,0.5-1.5,0.7c0.5,0,0.4,0.2,0.2,0.3c-0.4,0.1-0.7-0.2-1,0l-0.1-0.5c0.3,0.4-0.9,0.7-1,1
		C27.1,4.7,28,4.6,28,4.3c-1.6,0.5-0.8,0.2-2.4,0.7c-0.8,0.6,0.3,0.4,0,0.9c-0.7,0.3-1.3,0.8-2.3,0.8L23.7,7
		c-1.3,0.7-2.1,0.9-3.2,0.9c-1.1,0.8-2,1.6-2.6,2.2c-0.6,0.6-1,1.1-1.2,1.5c-0.4,0.8-0.2,1.2,0.3,1.4c1,0.4,3,0,3,0
		c2.1-0.2,3.4-0.8,4.9-1.5c1.5-0.7,3-1.5,5.3-2.2c0.2,0,0.5-0.1,0.7-0.1c0.2,0.7,0.4,1.4,0.5,2.3c-0.1,2.7-0.9,3.4-0.5,6.2
		c-0.1,1.3,0.1,2.7,0.2,4c0.6,0.6,0,1.7,0.5,2.4l-0.4,0.3c0.2,0.3,0.3,0.6,0.1,0.8l-0.1,0c0.3,0.4,0.1,0.8,0.2,1l-0.1,0l0,0.5
		l-0.1-0.1c0.3,0.7,0.3,1.3,0.1,1.9l0.4,0c-0.5,1.2,0.3,1.8-0.3,2.9l-0.1,0c1.1,1.5-0.9,2.2,0.1,3.8c-0.1-0.2-0.2,0.1-0.3,0
		c0.1,0.7,0.1,1.4,0.9,1.5c0,0.5-0.3,0.4-0.6,0.4c0.4,0,0.5,0.5,0.5,0.9l-0.1-0.2l0,1.1l0.7-0.2c-0.3,0.6-0.9,0.1-0.8,0.7l0.6,0.1
		c-0.2,0.8-1.1,1.2-1.6,1.9c-0.6,3.2,0.3,7-1.2,9.8l-0.5,0.1c-0.6-0.1,0.8,1,0.2,1l0.2,0.4c-0.1,0.1-0.3,0.3-0.4,0.1
		c-0.1,0.3,0,0.3,0.1,0.6l-0.5,0.3c-0.6,1.2,0,2.4-0.5,3.7c-1.2,1.4-1.2,4.5-1.4,6.4c0.1,1.3-0.7,2.5-1.5,3.7
		c-0.8,1.1-1.6,2.3-1.6,3.6c-0.1,0,0,0.3,0.1,0.3l-1,2.1c0,0-0.3,0.6-0.6,1.5c-0.4,0.8-0.7,1.9-0.9,2.8c-0.2,1.8,0.5,3.2,4.9,0.3
		l0.1,0.1c0.9-1.1,1.3-1.8,1-3c0.8,0.2,0.5-1,0.9-1.2l0.1,0.1c-0.3-1,1.2-1.3,0.9-2.3c0.1,0.1,0.3,0.2,0.2,0.3
		c0.1-0.6,0.2-1.4,0.7-1.3c0.3-1.3,1.3-3.1,0.7-4.2l0.1,0.1c-0.4-0.6,0.1-0.6,0-1.3c0.1,0,0.1,0,0.1,0c-0.4-0.7,0.4-1.5,0.3-2
		l0.3,0.1c0,0,0.1-0.3,0.1-0.5c0.1-0.3,0.1-0.5,0.1-0.5L32,62.8c-0.8-0.4,0.8-0.6,0.4-1.6c0.3-0.7-1.5-1.9-0.9-2.5
		c-0.3-0.5,0.6,0.5,0.4-0.1c0.5,0.1,0.2,0.3,0.6,0.3c-0.1-0.6,0.7-0.7,0.5-1.4l0.4,0.1c-0.5-1,0.8-1.5,0.3-2.2
		c-0.1-0.9,1.2-0.4,0.7-1.4l0.6-0.3c0.2-0.4-0.5-0.4-0.2-0.8c0.3,0.1,0.3-0.5,0.6-0.2c0.2-0.2,0.2-0.5,0.2-0.8
		c0.5,0.3,1,0.6,1.6,0.9l-0.1,0.1c1.1,0.3,2.1,0.5,2.9,0.4c0.9,0,1.6-0.2,2.4-0.6c0.3,0.8,1.9,0,2.4,0.1l0,0.1
		c1.3-0.8,2.9,0.1,4.1-0.8c0,0.1,0,0.3-0.3,0.4c0.9-0.3,2.1-0.9,2.3-0.4c2-0.7,4.7-1.4,5.9-2.5c0.9,0.6,0.5,2,1.9,2.4
		c-0.2-0.1-0.1,0.2-0.2,0.3c0.5,0.5,1,1,1.7,0.5c0.3,0.4,0,0.5-0.2,0.7c0.3-0.2,0.7,0,0.9,0.4l-0.2-0.1l0.8,0.9l0.5-0.6
		c0.2,0.6-0.6,0.6-0.1,1l0.5-0.3c0.4,0.8-0.1,1.7,0,2.6c1.7,3,5,5.3,6.2,8.5l-0.3,0.4c-0.5,0.5,1.3,0.1,0.9,0.6l0.5,0.1
		c0,0.2,0,0.4-0.2,0.4c0.2,0.3,0.3,0.2,0.6,0.3L70,68.2c0.7,1.3,2.1,1.7,3.1,2.9c0.7,1.9,4.1,3.7,6.1,4.2c1.5,0.3,2.7,1.3,4.1,2.2
		c1.4,0.9,3,1.7,4.6,1.3c0.1,0.1,0.4-0.1,0.4-0.1c0,0,0.7,0.1,1.4,0.2c0.7,0,1.4,0.1,1.4,0.1s0.2,0,0.6,0c0.4,0,0.9-0.1,1.4-0.2
		c1.1-0.2,2.5-0.7,3.4-1.4C97.4,76.6,97.8,75.9,97.3,75.3z M39.9,8.4c1,0,2.1-0.2,3.1-0.3c1-0.1,2.1-0.2,3.1-0.2
		c1-0.6,2.6,0,3.8-0.4l0.4,0.4c0.4-0.1,0.9-0.2,1.2,0l0,0.1c0.6-0.2,1.2,0,1.5-0.1l0,0.1l0.7,0.1l-0.1,0.1c1-0.1,2.1,0,2.9,0.4
		l0-0.4c0.9,0.5,1.5,0.5,2.2,0.6c0.6,0.1,1.2,0.2,2,0.8l-0.1,0.1c0.3,0,0.6-0.1,0.8,0c0.2,0,0.5,0.1,0.7,0.2
		c0.4,0.2,0.8,0.5,1.1,0.7c0.7,0.5,1.3,1.1,2.6,1.2c-0.3,0,0,0.3-0.1,0.3c0.2,0.1,0.5,0.2,0.7,0.3c0.2,0.1,0.4,0.2,0.6,0.2
		c0.4,0.1,0.7,0.1,1-0.3c0.5,0.4,0.2,0.6,0.1,0.9c0.2-0.3,0.8,0,1.2,0.4l-0.3-0.1c0,0,0.3,0.3,0.6,0.5c0.3,0.3,0.5,0.6,0.5,0.6
		s0.1-0.2,0.2-0.3c0.1-0.2,0.2-0.3,0.2-0.3c0.4,0.8-0.6,0.7,0.1,1.3l0.5-0.3c0.6,1.1,0.1,2.2,0.2,3.4c0.8,2.2,1.8,4.4,2,6.8
		c0.3,2.4-0.1,4.9-1.4,6.8l-0.5,0c-0.6-0.2,0.4,1.5-0.2,1.4l0,0.6c-0.2,0.1-0.4,0.3-0.4,0c-0.2,0.4-0.2,0.5-0.2,0.8l-0.6,0.2
		c-0.3,0.3-0.6,0.6-0.8,1c-0.3,0.3-0.5,0.7-0.7,1c-0.5,0.7-1,1.4-1.8,1.8c-0.1,0-0.3,0.1-0.4,0.1c-0.2,0.1-0.4,0.1-0.5,0.2
		c-0.4,0.2-0.7,0.3-1.1,0.5c-0.8,0.4-1.6,0.9-2.4,1.4C61,41.6,59.9,42.3,59,43c-0.1-0.1-0.1-0.2-0.2-0.3c-0.3,0.3-0.6-0.3-0.8,0.2
		c-1.3-0.5-1-2.4-2.5-1.4c-0.5-0.3-0.3-0.7-0.5-1l0.2,0c-1-0.5-1.2-0.7-1.9-1.2c-0.4-0.1-0.9,0.5-1.4,0c0.4-0.2,0.1-0.3-0.2-0.4
		c0.2,0,0.3,0,0.1-0.4c-0.1,0.1-0.2,0.1-0.3,0.1c0,0,0,0,0-0.1c-0.5-0.1-0.4,0-0.3,0.1c0,0,0,0.1,0,0.2c-0.2-0.6-1.2-0.6-1-1.1
		c-1.3-0.5-2.5-0.3-3.6-0.4c0-0.3,0.3-0.5,0.6-0.5l-0.8-0.1c0.1-0.4,0.5-0.1,0.8-0.1c-0.8-0.9-2.1,0.1-3.1-0.6l-0.3,0.3l-0.1-0.1
		c0,0.2-0.3,0.4-0.5,0.4c-0.1-0.4,0.1-0.8-0.5-0.8c-0.4-0.4-1.3,0.1-1.9,0.3c0.3,0.1,0.2,0.3,0.1,0.4c-0.3,0-0.4-0.3-0.7-0.2l0-0.5
		c0.1,0.4-0.7,0.5-0.8,0.7c-0.2-0.3,0.4-0.3,0.5-0.6c-1.2,0.1-0.6,0-1.7,0.2c-0.6,0.4,0.2,0.4,0,0.9c-0.5,0.2-0.9,0.6-1.6,0.5
		l0.2,0.3c-0.2-0.1-0.4-0.2-0.3-0.5l0.4,0.1c-0.1-0.2-0.2-0.3-0.1-0.5c0.2,0.2,0.5,0.1,0.5-0.2l0.4,0.3l-0.6-0.7
		c0.4-0.5,0-1.3,0.5-1.5c0,0,0.3-1.1-0.2-1.4c0.3,0.2,0.5-0.4,0.9-0.2c-0.4-0.3-0.7-1.2-0.2-1.5l0,0.1c0.5-1.2-0.5-2.2,0.1-3.3
		c-0.4,0-0.2-0.6-0.7-0.4C37,27,38.7,26.1,37,25.7c-0.1-0.5,0.4-0.6,0.5-0.9l0.1,0.1c-0.1-1-0.1-1.3-0.1-2c-0.2-0.4-1-0.4-0.8-1.1
		C37,22,37,21.7,37,21.5c0.1,0.2,0.2,0.2,0.4-0.1c-0.1,0-0.2-0.1-0.2-0.2c0,0,0,0,0.1,0C37.1,20.8,37,20.8,37,21c0,0-0.1,0-0.2,0.1
		c0.4-0.4,0-1.2,0.5-1.2c-0.1-1.2-0.7-2.1-0.9-3.1c0.3-0.1,0.5,0.1,0.6,0.4l-0.1-0.7c0.4,0,0.2,0.4,0.3,0.6c0.6-0.9-0.7-1.8-0.1-2.8
		L36.8,14l0.1-0.1c-0.2,0-0.4-0.2-0.5-0.4c0.3-0.2,0.8,0,0.8-0.5c0.3-0.4-0.2-1.1-0.4-1.6c0,0.3-0.2,0.2-0.4,0.1
		c0-0.3,0.3-0.4,0.2-0.6l0.5,0c-0.4,0.1-0.5-0.6-0.7-0.7c0.3-0.2,0.3,0.4,0.6,0.4c-0.1-1,0-0.5-0.1-1.5c-0.1-0.2-0.2-0.2-0.3-0.2
		C37.4,8.8,38.5,8.7,39.9,8.4z M35.8,47.8c0.1-0.3,0.2-0.6,0.5-0.1c0,0,0,0.1,0,0.1C36.1,47.8,35.9,47.8,35.8,47.8z M35.8,8.9
		c0.2,0,0.4,0,0.6,0C36.2,8.9,36.1,9.1,35.8,8.9C35.8,8.9,35.8,8.9,35.8,8.9z M45.7,47.3c-0.1-0.1-0.4,0.2-0.4,0.3
		c0,0-0.9,0.1-1.8,0.2c-0.9,0.1-1.8,0.1-1.8,0.1s-0.3,0-0.7,0c-0.4,0-1,0-1.7,0c-0.7,0-1.4-0.1-2.2,0c-0.2,0-0.3,0-0.5,0
		c0.5-0.6-0.3-1.3-0.1-2c-0.2,0.2-0.2,0.5-0.4,0.3l0.1-0.7l0.3,0.2l0.3-1l-0.4,0.1c0.3-0.5,0.9-0.6,0.5-1.2
		c-0.3-0.3-0.6,0.4-0.6-0.1c0,0,0.1-0.1,0.1-0.2c0.6-0.1,1.1-0.3,1.6-0.7c0.7-0.4,1.5-0.9,2.8-1.1c1.1,0.1,1.8,0.5,2.5,0.7
		c0.7,0.3,1.4,0.6,2.5,0.8c1,0.4,2.2,0.7,3.2,1.2c0.4-0.2,0.7,0,1,0.3c0.3,0.2,0.7,0.5,1.1,0.5l0,0.4c0.3,0,0.6,0.1,0.6,0.4
		l-0.1,0.1c0.1,0,0.3,0,0.4,0.1c-0.1,0-0.2,0-0.3,0.1C49.6,46.2,47.6,46.4,45.7,47.3z"/>
	<polygon fill="#202020" points="66.3,51.3 66.3,51.4 66.6,51.3 	"/>
</g>
</svg>
