<?xml version="1.0" encoding="utf-8"?>
<!-- Generator: Adobe Illustrator 18.1.1, SVG Export Plug-In . SVG Version: 6.00 Build 0)  -->
<svg version="1.1" id="Layer_1" xmlns="http://www.w3.org/2000/svg" xmlns:xlink="http://www.w3.org/1999/xlink" x="0px" y="0px"
	 viewBox="0 0 128 128" enable-background="new 0 0 128 128" xml:space="preserve">
<polygon fill="#E0FF2E" points="64,1 69.3,8.3 75.9,2.1 79.8,10.3 87.4,5.5 89.7,14.3 98.1,11 98.7,20 107.5,18.4 106.4,27.4 
	115.4,27.5 112.6,36.1 121.4,37.9 117,45.8 125.3,49.3 119.5,56.2 127,61.1 120,66.8 126.4,73.1 118.5,77.4 123.6,84.8 115,87.5 
	118.6,95.7 109.7,96.7 111.7,105.5 102.7,104.8 103,113.8 94.3,111.4 92.9,120.3 84.8,116.2 81.8,124.7 74.6,119.3 70,127 64,120.3 
	58,127 53.4,119.3 46.2,124.7 43.2,116.2 35.1,120.3 33.7,111.4 25,113.8 25.3,104.8 16.3,105.5 18.3,96.7 9.4,95.7 13,87.5 
	4.4,84.8 9.5,77.4 1.6,73.1 8,66.8 1,61.1 8.5,56.2 2.7,49.3 11,45.8 6.6,37.9 15.4,36.1 12.6,27.5 21.6,27.4 20.5,18.4 29.3,20 
	29.9,11 38.3,14.3 40.6,5.5 48.2,10.3 52.1,2.1 58.7,8.3 "/>
</svg>
