<?xml version="1.0" encoding="utf-8"?>
<!-- Generator: Adobe Illustrator 18.1.1, SVG Export Plug-In . SVG Version: 6.00 Build 0)  -->
<svg version="1.1" id="Layer_1" xmlns="http://www.w3.org/2000/svg" xmlns:xlink="http://www.w3.org/1999/xlink" x="0px" y="0px"
	 viewBox="0 0 110 82" enable-background="new 0 0 110 82" xml:space="preserve">
<g>
	<path fill="#ffffff" d="M67.5,30.1l0.7-0.2C68.1,29.8,67.9,29.9,67.5,30.1z"/>
	<path fill="#ffffff" d="M77.6,4.7C77.7,4.8,77.7,4.8,77.6,4.7c0.1,0.1,0.2,0.1,0.3,0.2L77.6,4.7z"/>
	<path fill="#ffffff" d="M58.6,33.6L58.6,33.6C58.7,33.7,58.6,33.7,58.6,33.6z"/>
	<path fill="#ffffff" d="M102.1,71c-0.2-0.1-0.6-0.1-1.2-0.1c-0.6,0-1.3,0.2-2.3,0.3c-1.9,0.3-4.8,0.6-8.5,0.1l0.2-0.1
		C86,71,83.2,70.3,80,70.4c-0.3-0.9-3.7-1-4.7-1.6l0.1,0c-1.5-0.1-3-0.6-4.2-1.1c-1.3-0.6-2.5-1.2-3.9-1.5c0.1,0,0.3-0.2,0.9,0
		c-1.9-0.6-4.5-1.7-4.4-2.2c-4.4-1.9-10.3-5.3-13.4-6.2l0.3,0c-1.6-0.3-2-0.9-3.2-1.5c0.2-2.5,1-0.7,1.3-3.6l0.2,0.3l-0.6-1
		c0-3,1.2-1.4,0.9-4.8c-0.2,1.3-0.9,0.4-0.4-1.1l0.3,0.5c0.1-0.9,0-1.2,0.2-1.8c0.1,0.6,0.5,0.4,0.6-0.9l0.3,0.9L50,42.2
		c0.2-0.6,0.4-1.3,0.5-2c0.8,0,1.7-0.1,2.5-0.1c2.4-0.2,5-0.6,8.1-1.4c2.7-0.6,4.9-1.4,6.7-2.3c0.9-0.4,1.8-0.9,2.6-1.3
		c0.8-0.5,1.6-0.9,2.3-1.5c1.5-1,2.9-2.3,4.4-3.9c1.4-1.7,2.9-3.8,3.9-6.8c0.3-0.7,0.5-1.4,0.7-2.2c0.2-0.7,0.3-1.5,0.5-2.3
		c0.3-1.5,0.3-3.2,0.1-4.8c-0.2-1.6-0.7-3.3-1.4-4.8c-0.8-1.5-1.9-3-3.2-4.1c-1.4-0.8-3.3-1.9-5.4-2.4c-2.1-0.6-4.2-0.6-5.8-0.2
		c0,0-0.3-0.1-0.7-0.1C65.5,2,65.1,2,65.1,2c-1.1,0.4-2.4,0.9-3.5,1.2l0-0.1C60.9,3.5,60,4,59.4,4.4c-0.7,0.4-1.2,0.8-1.5,1.1l0-0.1
		c0,0-0.4,0.3-0.8,0.7c-0.4,0.3-0.7,0.7-0.7,0.7l0.2-0.3c-2,2.2-3.6,4.5-4.9,6.6l0.5,0c-1.5,2.2-2,3.8-2.5,5.4
		c-0.5,1.6-0.9,3.1-1.7,5.2l-0.1-0.1c-0.2,2.9-0.8,4.9-1.4,7c-0.4,1.5-0.9,3-1.1,4.8c-2.1-0.2-3.6-0.7-5.1-1.4
		c-3-0.3-5.4-0.7-7.2-0.9c-1.8-0.2-3.1-0.4-4-0.4c-1.7,0-1.8,0.5-1.1,1.1c0.7,0.7,2.2,1.5,3.5,2.1c1.3,0.6,2.5,1.1,2.5,1.1
		c3.9,1.7,7.2,2.5,10.7,2.9c-0.2,1.7-0.2,3.1,0.4,3.3c-0.4,1.8-0.5,1.4-0.9,1.6c0.4,0.1,0.2,1.7-0.1,3l0-0.7c0,0-0.2,1-0.4,2
		c-0.2,1-0.4,2-0.4,2l0.9-0.6c-0.7,2.1-1,0.4-1.3,2.5l0.6,0.1c-0.1,0.3-0.2,0.5-0.2,0.8c-1.3-0.6-2.6-1.2-3.4-1.3l0-0.4
		c0,0-0.3-0.1-0.6-0.2c-0.4-0.1-0.9-0.2-1.4-0.3c-0.5-0.1-1-0.2-1.4-0.2c-0.4-0.1-0.7-0.1-0.7-0.1s0.4,0.1,0.8,0.2
		c0.4,0.1,0.8,0.2,0.8,0.2c-0.4,0.4-1.1,0.1-2.2-0.2c-1.1-0.3-2.5-0.6-4-0.3c-1.4,0-2.8,0.6-4.1,1.3c-1.3,0.7-2.5,1.4-3.9,1.7
		c-1.1,0.8,0.9-1.1-0.9-0.1c-0.2-0.4,0.8-0.6,0.2-0.8c-1.8,0.9-3.3,0.8-5.4,2.4l-0.3-0.3c-1.2,1.2-2.5,2.1-3.7,3.1
		c-1.1,1-2.1,2-2.4,3.2c-0.8,1.7-1.2,2.2-1.6,2.8c-0.3,0.6-0.9,1.3-0.5,3.5c0,0-0.1,0.4-0.2,0.9C7.7,69.5,7.6,70,7.6,70
		c0.1,1,0.4,1.2,0.6,1.5c0.2,0.3,0.5,0.6,0.8,1.6c-0.2,0,0.1,0.6,0.3,1.1c0.2,0.5,0.4,0.8-0.1,0.4c0.6,1.1,1.5,2.1,2.5,2.8
		c1.1,0.8,2.3,1.3,3.6,1.6c2.6,0.6,5,0.4,7.7,0.4c1-0.8,3.6-1.1,4.2-1.8c0.1,0.1,1.3-0.3,2.2-0.6c0.8-0.3,1.4-0.4,0.2,0.4
		c-0.2,0.1-0.6,0.3-0.6,0.2L28.9,78c1.5-0.2,2.7-0.8,3.8-1.4c0.5-0.3,1.1-0.7,1.6-1.1c0.5-0.3,1.1-0.7,1.8-1
		c-0.9,0.4-1.8,0.8-1.3,0.3c0,0,0.1-0.1,0.4-0.2c0.2-0.1,0.5-0.3,0.8-0.4c0.3-0.2,0.6-0.3,0.8-0.4c0.2-0.1,0.4-0.2,0.4-0.2
		s-0.1,0.1-0.2,0.3c-0.1,0.1-0.2,0.3-0.2,0.3s0.2-0.1,0.6-0.3c0.3-0.2,0.8-0.5,1.3-0.8c0.5-0.3,0.9-0.6,1.2-0.9
		c0.3-0.2,0.5-0.4,0.5-0.4c0,0-0.7,0.1-0.7,0.1c0.5-0.3,0.8-0.6,1.2-0.8c0.3-0.2,0.7-0.4,1-0.7c0.6-0.5,1.2-1.2,1.6-2.4
		c0.3-1.1-1.6,1.4-0.4-0.5c0.8-1.1,1.7-2.7,2.4-4.3c0.3-0.8,0.6-1.5,0.9-2.3c3.1,1.7,6.1,3.7,9.3,5.6c4.4,2.7,8.9,5.3,14,6.5
		c0.3,0.2,1.2,0.3,1.2,0.2c0,0,0.1,0,0.4,0.1c0.2,0.1,0.6,0.2,1,0.3c0.8,0.2,1.9,0.5,2.9,0.8c2.1,0.6,4.4,1.1,4.4,1.1s0.2,0,0.5,0.1
		c0.3,0.1,0.8,0.2,1.3,0.3c1.1,0.2,2.7,0.5,4.6,0.6c1.9,0.1,4,0.1,6.1-0.2c2.1-0.3,4.1-0.8,5.8-1.6c1.7-0.7,2.9-1.5,3.7-2.2
		C102.3,71.7,102.6,71.2,102.1,71z M51.9,35.3c-0.1,0-0.2,0-0.2,0c0-0.2,0.1-0.3,0.1-0.5C52,34.9,52.4,35.1,51.9,35.3z M53,31.3
		c-0.2-1.1,0.1-4.1,0.9-5.1l0,0.2c0.7-2,1.1-3.8,1.6-5.5c0.5-1.7,1-3.3,2.1-4.7c-0.5-0.1,0.7-1.6,0-1.5c0.8-1.7,2.1-2.9,3.2-3.6
		c1.1-0.8,1.9-1.3,2-2.4c0.7-0.4,1.2-0.5,1.6-0.5c0.4,0,0.7,0,1.1,0l-0.3,0.2c1.4-0.5,2.3-0.6,3.2-0.6c0.8,0,1.6,0.1,2.6,0.4
		c0.3,0,0.5,0,0.7,0c0.2,0,0.4,0,0.6-0.1c0.5,0,1,0.1,1.7,0.8c-0.3-0.1-0.4,0-0.2,0.2c0.1,0.1,0.4,0.4,0.7,0.6
		c-0.2-0.1-0.3-0.2-0.3-0.1c0,0.1,0.1,0.2,0.3,0.6c0.1,0,0.3,0.1,0.5,0.2c0,0,0,0.1,0,0.1c0.4,0.4,0.5,0.6,0.6,0.6
		c0.1,0,0-0.2-0.1-0.4c0.1,0,0.1-0.1,0.1-0.3c0.2,0.6,0.6,1.4,0.8,2.1c0.2,0.7,0.3,1.3,0,1.4c0.2,0.9,0.3,1.8,0.3,2.6
		c0,0.4,0,0.8,0,1.3c0,0.4,0,0.8-0.1,1.2c-0.2,1.6-0.7,3.2-1.4,4.7c-0.4,0.2-0.2-0.6,0.1-1.5c0,0-0.2,0.5-0.5,1.1
		c-0.3,0.5-0.6,1-0.6,1c-0.3-0.2,0.6-1.3,0.8-2c-0.9,1.1-1.6,2.3-2.4,3.6c-0.8,1.3-2,2.5-3.5,3.3l-0.4,0.7l-0.2,0.1
		c0.1,0.1-0.4,0.8-0.8,1.1c-0.6-0.1-0.4-0.7-1.8,0.1c-1.3,0.4-3.3,1.7-5,2.4c0.9-0.2,0.7,0.1,0.3,0.3c-0.8,0.2-1.4,0-2,0.3l-0.1-0.3
		c0,0.2-0.5,0.4-1,0.5c-0.6,0.2-1.3,0.3-1.5,0.5c-0.5-0.3,1.3-0.5,1.5-0.8c-1.7,0.3-2.1,0.3-2.6,0.3c-0.4,0-0.9,0.1-2.6,0.2
		c-0.4,0.1-0.6,0.1-0.7,0.2c0.2-1.1,0.3-2.2,0.1-2.7C52.2,32.7,52.7,30.6,53,31.3z M40,60.3c-0.8,2.7-1.9,4.9-3.7,6.7
		c-0.9,0.9-2,1.7-3.2,2.4c-1.2,0.7-2.6,1.5-4,2.1c-2.7,1.3-5.5,2.2-8.1,2.5c-1.3,0.1-2.6,0.1-3.6-0.2c-1.1-0.3-1.9-0.9-2.4-1.6
		c0,0,0-0.1,0.1-0.3c0-0.1,0.1-0.3,0.1-0.3c0.1-0.1,0-0.2-0.1-0.4c-0.2-0.1-0.4-0.2-0.6-0.4c-0.5-0.3-1-0.8-0.7-1.1
		c0,0-0.1-0.2-0.3-0.4c-0.1-0.2-0.2-0.4-0.2-0.4c0.1-0.3,0.1-0.8,0.3-0.4c0-0.4,0-0.6-0.1-0.8c0-0.2-0.1-0.3-0.1-0.7
		c0,0,0.1-0.2,0.3-0.4c0.2-0.2,0.3-0.4,0.3-0.4c0.3-0.8,0.7-1.5,1.2-2.3c0.5-0.7,1-1.5,1.7-2.2c1.3-1.4,3-2.7,5.1-3.5
		c2.6-0.8,6.4-1.8,10.4-1.8c2,0,4,0.2,5.8,0.6c1.1,0.3,2.2,0.6,3.1,1C40.7,58.8,40.4,59.5,40,60.3z"/>
</g>
</svg>
