<?xml version="1.0" encoding="utf-8"?>
<!-- Generator: Adobe Illustrator 18.1.1, SVG Export Plug-In . SVG Version: 6.00 Build 0)  -->
<svg version="1.1" id="Layer_1" xmlns="http://www.w3.org/2000/svg" xmlns:xlink="http://www.w3.org/1999/xlink" x="0px" y="0px"
	 viewBox="0 0 110 82" enable-background="new 0 0 110 82" xml:space="preserve">
<g>
	<path fill="#ffffff" d="M43.6,16.9l-0.2,0.2C43.5,17.1,43.6,17,43.6,16.9z"/>
	<path fill="#ffffff" d="M37.9,24.4L37.9,24.4C37.9,24.4,37.9,24.4,37.9,24.4L37.9,24.4z"/>
	<polygon fill="#ffffff" points="45.6,40.4 45.6,40.4 45.9,40.5 	"/>
	<path fill="#ffffff" d="M38.1,2.8l0.4,0.1C38.5,2.9,38.4,2.8,38.1,2.8z"/>
	<path fill="#ffffff" d="M61.1,52.2C61.1,52.3,61,52.3,61.1,52.2C61.1,52.3,61.1,52.3,61.1,52.2z"/>
	<path fill="#ffffff" d="M53,8.7L53,8.7c-0.1,0-0.1,0-0.1,0L53,8.7z"/>
	<path fill="#ffffff" d="M90.5,30.7c-0.2-0.8-0.4-1.5-0.4-2.3c-0.1,0.5,0,1.1-0.3,0.7c0,0,0-0.4,0-0.7c0-0.4-0.1-0.7-0.1-0.7
		l0.3,0.3c0,0,0-0.6,0-1.1c-0.1-0.6-0.1-1.1-0.1-1.1l-0.3,0.4c0-1.1,0.5-1.6-0.3-2.7c-0.4-0.4-0.2,1.1-0.6,0.1
		c-0.2-1.4-0.6-3.5-1.4-5.2c-0.3,0.4-0.5-0.1-0.8-0.5l0.3-0.2c-1.4-1.4,0.3-1.1-1.1-2.4c0,0-0.1,0-0.2,0c-0.2,0-0.5,0-0.5,0
		c-1.7-0.8,0-1.3-2-2c0.6,0.5-0.4,0.8-0.9,0l0.4-0.1c-0.4-0.3-0.6-0.3-0.8-0.6c0.4,0.1,0.5-0.3-0.1-0.7l0.7,0c0,0-0.4-0.1-0.8-0.2
		c-0.4-0.1-0.7-0.2-0.7-0.2c-0.6-1-2.2-1.6-2.3-2.3c0,0-0.4-0.4-1-0.7c-0.5-0.3-1.2-0.6-1.6-0.5c0.6-0.1-0.5-0.8,0-1
		c-0.4,0-1-0.1-1.5-0.3c-0.6-0.2-1.1-0.5-1.4-0.8l0.1,0c-2.2-1.4-4.3-1-6.3-2.1c0,0.4-1.1-0.1-1,0.5c-2.3,0-3.9-2-5-0.5
		c-1-0.1-1.1-0.6-1.7-0.8L59.6,3c-1.9-0.1-2.5-0.2-3.9-0.4c-0.7,0.1-0.9,0.9-2.1,0.6C54,3,53.4,3,53,2.9c0.3,0,0.4-0.1-0.2-0.4
		c-0.1,0.1-0.2,0.1-0.4,0.2c0,0,0,0,0-0.1c-0.8,0.1-0.7,0.2-0.3,0.2c0,0,0,0.1,0.1,0.2c-0.8-0.5-2.3-0.1-2.4-0.6
		c-2.4,0-4.1,0.6-6,0.8C43.6,3,44,2.7,44.6,2.6l-1.4,0.1c0-0.4,0.8-0.2,1.2-0.3C42.8,1.8,41,3.1,39,2.6L38.7,3l-0.1,0
		c0,0.2-0.4,0.4-0.7,0.5c-0.3-0.3,0-0.8-1-0.7c-0.8-0.3-2.2,0.4-3.1,0.7c0.5,0,0.4,0.2,0.2,0.4c-0.5,0.1-0.8-0.3-1.1-0.1l-0.1-0.5
		c0.2,0.4-1.2,0.6-1.3,0.9C31,3.8,32,3.7,32.1,3.4c-1.9,0.3-1,0.1-2.9,0.5c-1,0.5,0.3,0.4-0.2,0.9c-0.9,0.2-1.7,0.7-2.8,0.7l0.4,0.3
		c-1.6,0.7-2.6,1-3.8,1c-2.7,2.1-3.4,3.9-3.5,4.8c-0.1,0.9,0.3,1.3,0.9,1.2c0.5,0,1.1-0.2,1.6-0.4c0.5-0.2,0.9-0.3,0.9-0.3
		c1.8-0.5,3.1-1,4.8-1.7c1.6-0.6,3.6-1.3,6.4-1.8c1.3-0.1,2.3-0.1,3.2-0.1c-0.6,2.3,0.5,3.5,0.9,6.2c-0.1,2.5-0.9,3.2-0.5,5.8
		c0,1.2,0.2,2.6,0.3,3.8c0.7,0.6,0,1.6,0.6,2.3l-0.4,0.3c0.2,0.2,0.3,0.5,0.1,0.7l-0.1,0c0.3,0.3,0.1,0.7,0.3,0.9l-0.1,0l0.1,0.4
		l-0.2-0.1c0.3,0.6,0.3,1.2,0.2,1.8l0.4-0.1c-0.5,1.2,0.4,1.6-0.1,2.7l-0.1,0c1.2,1.3-0.8,2.2,0.3,3.6c-0.1-0.2-0.2,0.1-0.3,0.1
		c0.1,0.6,0.2,1.3,1.1,1.3c0,0.5-0.3,0.4-0.6,0.5c0.4,0,0.5,0.4,0.6,0.8l-0.1-0.2l0.1,1.1l0.7-0.2c-0.2,0.6-0.9,0.1-0.7,0.7l0.6,0
		c-0.1,0.8-1,1.2-1.4,2c0,0.6,0,1.3,0,1.9c-1.3-0.6-2.8-1.3-3.9-2c-1.4-0.7-2.5-1.2-2.8-0.5c-0.2,0.3-0.1,1,0.3,2.1
		c0.4,1.1,1.3,2.5,2.9,4.3l-0.2,0.1c1.6,1.2,2.9,1.8,4.2,2.1c-0.1,0.5-0.2,1-0.3,1.5l-0.4,0.1c-0.6,0.1,0.9,0.8,0.3,0.9l0.3,0.3
		c-0.1,0.1-0.2,0.3-0.4,0.1c0,0.3,0.1,0.3,0.3,0.5l-0.4,0.3c-0.3,1.2,0.4,2.3,0.3,3.6c-0.8,1.5-0.1,4.5,0.3,6.2
		c0.9,2.4-1.7,5.1-0.7,7.5c-0.1,0.1,0.1,0.3,0.2,0.3l-0.2,2.2c0,0-0.1,2.7,0.4,4.4c0.5,1.7,1.8,2.4,4.6-1.6l0.1,0.1
		c0.4-1.2,0.5-2-0.2-2.8c0.9-0.1,0.1-1,0.4-1.3l0.1,0c-0.6-0.8,0.6-1.5,0-2.3c0.1,0,0.3,0.1,0.3,0.2c-0.1-0.5-0.3-1.2,0.2-1.3
		c-0.1-1.3,0.2-3-0.6-3.8l0.1,0.1c-0.5-0.5-0.1-0.6-0.3-1.1c0.1,0,0.1-0.1,0.1-0.1c-0.5-0.5-0.1-1.5-0.3-1.9l0.3,0l-0.1-1l-0.1,0.4
		c-0.9-0.1,0.6-0.7,0-1.5c0.1-0.7-1.9-1.4-1.4-2.1c-0.4-0.3,0.7,0.3,0.4-0.2c0.5,0,0.3,0.2,0.7,0.1c-0.2-0.5,0.5-0.8,0.2-1.4l0.4,0
		c-0.7-0.8,0.5-1.5-0.1-2c-0.3-0.8,1.1-0.5,0.4-1.4l0.5-0.3c0.1-0.4-0.6-0.3-0.4-0.7c0.3,0,0.3-0.5,0.6-0.3c0.1-0.2,0.1-0.4,0.1-0.6
		c1.1,0.3,2.2,0.9,3.4,0.6c-0.1,0.1-0.1,0.3-0.5,0.3c0.6,0,1.2,0,1.8,0c0.5,0,0.9,0.1,1,0.4c2.7,0,6.4,0.1,8.1-0.9l-0.1,0.2
		c0.9-0.6,1.2-0.2,2.3-0.6c0.1,0.1,0.1,0.1,0.1,0.1c1-0.6,3-0.5,3.8-0.9l0.1,0.3c0,0,0.5-0.1,1-0.2c0.5-0.1,1-0.2,1-0.2l-0.8,0.1
		c0.1-1,1.7,0.3,3-0.7c1.4-0.2,2.2-2.6,3.7-2.7c0.5-0.6-0.3,0.9,0.5,0.2c0.2,0.4-0.4,0.5,0,0.7c0.9-0.6,1.8-0.2,2.8-1l0.2,0.3
		c0.6-0.6,1.4-1,2.1-1.2c0.7-0.3,1.4-0.5,1.7-1.1c1.2-1.3,1.7,0.2,2.7-1.6c0,0,0.9-0.1,0.9-0.1c0.7-0.6,0-0.9,0.8-1.4
		c0.2,0.3,1-0.8,0.8-0.1c0.4-0.3,0.8-0.8,1.1-1.2c0.3-0.5,0.5-1,0.8-1.6c0.5-1.1,0.9-2.3,1.8-3.5c-0.4-0.8,0.3-2.1-0.1-2.6
		c0.1,0,0.3-0.7,0.4-1.2c0.1-0.5,0.2-0.8,0.4,0.1c0,0.1,0,0.4-0.1,0.4l0.3,0.2C90.7,32.3,90.6,31.5,90.5,30.7z M83.7,35.1
		c-0.2,0.6-0.6,1.2-0.9,1.8c-0.4,0.5-0.8,1-1.3,1.4L81,38.1c-0.3-0.2-0.3,0.2-0.3,0.7c-0.1,0.4-0.1,0.9-0.4,0.7l-0.2,0.6
		c-0.2,0-0.6,0.2-0.4-0.1c-0.4,0.3-0.4,0.4-0.5,0.8c0,0-0.2,0-0.3,0c-0.2,0-0.4,0-0.4,0c-1.9,1-3.2,2.6-5.5,3.4
		c-1.5,0.2-3.5,0.8-5.6,1.5c-2.1,0.6-4.3,1.3-5.9,1.7c-2.3,0.8-4.9,0.6-7.4,0.3c-2.5-0.3-4.9-0.9-7.2-0.7c-0.1-0.1-0.5,0-0.6,0.1
		c0,0-0.3-0.1-0.6-0.1c-0.1,0-0.2-0.1-0.4-0.1c-0.1-0.2-0.2-0.4-0.1-0.6c-0.1,0.2-0.1,0.5-0.3,0.3l0-0.6l0.3,0.1l0.2-0.9l-0.4,0.1
		c0.2-0.5,0.8-0.6,0.3-1.1c-0.3-0.2-0.5,0.4-0.6,0c0.3-0.6,0.7-1.5,0.8-2.3c-0.4,0.1-0.4-0.1-0.5-0.4l0.4,0
		c-0.5-0.8,0.8-0.3,0.4-1.1l-0.5-0.1c-0.7-0.7,0.8-0.4-0.2-1.2c0.1,0.3-0.8,0.2-0.7-0.2l0.4,0.1c-0.1-0.2-0.2-0.3-0.2-0.4
		c0.2,0.1,0.5,0.1,0.5-0.3l0.5,0.2l-0.7-0.6c0.4-0.5-0.1-1.2,0.4-1.4c0,0,0.2-1-0.3-1.3c0.3,0.2,0.5-0.4,0.9-0.2
		c-0.4-0.3-0.7-1-0.3-1.4l0,0.1c0.4-1.2-0.6-2-0.1-3c-0.4,0.1-0.2-0.5-0.8-0.4c-0.6-1.1,1.1-2-0.6-2.3c-0.1-0.5,0.4-0.6,0.5-0.8
		l0.1,0.1c-0.2-0.9-0.2-1.2-0.2-1.9c-0.2-0.3-1-0.4-0.8-1c0.3,0.2,0.3-0.1,0.3-0.3c0.1,0.1,0.2,0.2,0.4-0.1c-0.1,0-0.2-0.1-0.2-0.2
		c0,0,0,0,0.1,0c-0.1-0.4-0.2-0.3-0.3-0.1c0,0-0.1,0-0.2,0.1c0.4-0.4-0.1-1.1,0.5-1.2c-0.2-1.1-0.7-1.9-1-2.9
		c0.3-0.1,0.5,0.1,0.6,0.4l-0.1-0.7c0.4,0,0.2,0.4,0.3,0.6c0.6-0.8-0.7-1.6-0.1-2.6l-0.3-0.2l0.1-0.1c-0.2,0-0.4-0.2-0.5-0.3
		c0.3-0.1,0.8,0,0.8-0.5c0.3-0.4-0.2-1-0.4-1.5c-0.1,0.3-0.2,0.2-0.4,0.1c0-0.2,0.3-0.4,0.2-0.6l0.5,0c-0.4,0.1-0.5-0.6-0.7-0.7
		c0.3-0.1,0.3,0.4,0.6,0.4c-0.1-0.9,0-0.5-0.1-1.4c-0.4-0.5-0.4,0.1-0.9-0.1c-0.1-0.4-0.5-0.9-0.2-1.4l-0.4,0.2
		c-0.4-0.8-0.3-1.3,0.1-1.9c-0.1-0.2-0.3-0.4-0.4-0.6c1.1,0,2.3,0,3.9-0.1c2.5,0.1,5.1,0,7.5,0.1c1.2-0.5,3.1,0.3,4.5-0.1L58,9.1
		c0.5-0.1,1-0.2,1.5,0.1l0,0.1c0.7-0.2,1.5,0.1,1.8,0.1l0,0.1L62,9.6l-0.2,0.1c1.2,0,2.4,0.2,3.4,0.6l0-0.4c2.1,1.1,3.1,0.5,4.8,1.8
		L70,11.8c1.4,0,2.2,0.6,3,1.3c0.8,0.7,1.5,1.3,2.9,1.7c-0.3-0.1,0,0.3-0.1,0.3c1,0.6,2,1.4,2.6,0.8c0.6,0.6,0.3,0.7,0.2,1
		c0.3-0.3,0.9,0.2,1.4,0.7l-0.3-0.1c0,0,0.1,0.1,0.2,0.2c0.1,0.1,0.3,0.3,0.5,0.5c0.2,0.2,0.3,0.4,0.5,0.5c0.1,0.1,0.2,0.2,0.2,0.2
		s0.1-0.2,0.2-0.4c0.1-0.2,0.2-0.4,0.2-0.4c0.5,1-0.5,0.7,0.2,1.4l0.5-0.3c0.7,1.3,0.4,2.5,0.5,3.9c0.5,1.3,1,2.6,1.3,3.9
		c0.4,1.3,0.6,2.7,0.6,4.1C84.3,32.5,84.2,33.8,83.7,35.1z"/>
	<path fill="#ffffff" d="M85.6,15.2C85.6,15.2,85.6,15.2,85.6,15.2c0.2,0,0.3,0,0.3,0L85.6,15.2z"/>
</g>
</svg>
